<svg xmlns="http://www.w3.org/2000/svg" viewBox="0 0 757.54 578.15"><defs><style>.cls-1{fill:#0b2544;}.cls-2,.cls-4{fill:#fff;}.cls-3{fill:#14b7da;}.cls-4{opacity:0.3;}.cls-5{fill:#071c1f;}</style></defs><g id="Layer_2" data-name="Layer 2"><g id="Layer_1-2" data-name="Layer 1"><path class="cls-1" d="M381.19,376a1.81,1.81,0,0,0-.3-.53,1.52,1.52,0,0,0-.5-.07,4,4,0,0,1-.5-.05,5.23,5.23,0,0,1-1.73-.65,3.16,3.16,0,0,0-1.21-.46c-.94-.08-1.73,1-2.49,2.1l-.21.29a5.14,5.14,0,0,1-3.3,2.14,2.48,2.48,0,0,1-2-.65,4.15,4.15,0,0,1-.51-.58,2.59,2.59,0,0,0-.31-.36l-.22.05a2.41,2.41,0,0,1-1,0,2.32,2.32,0,0,1-1.59-1.85c-.06-.17-.11-.35-.18-.5a1.06,1.06,0,0,0-.68-.57,4.27,4.27,0,0,0-3.05.56l-.45.25c-1.63.93-3.67,2.1-5.68,1.17a5.72,5.72,0,0,1-1.71-1.35,6.87,6.87,0,0,0-.85-.77,1.35,1.35,0,0,0-1.09-.19l-.44-.09a4.37,4.37,0,0,1-.27,2.37,7.22,7.22,0,0,1-2.51,2.82,11.89,11.89,0,0,0-1.33,1.16,10.57,10.57,0,0,0-1.67,2.75,16.65,16.65,0,0,1-1.39,2.5,5.76,5.76,0,0,1-4,2.37,3.39,3.39,0,0,1-1.11-.07l0,.07a4,4,0,0,1-2.16,2.14,10.22,10.22,0,0,1-1.86.53,8.15,8.15,0,0,0-1.67.48,2,2,0,0,0-1,1.12.6.6,0,0,0,0,.52l.52.82-.83.49a2.26,2.26,0,0,1-1.17.33,4.6,4.6,0,0,1-2.55-1.05c.19.59.35,1.2.51,1.78.51,2,1,3.83,2.43,4.52l.58.28a18.71,18.71,0,0,1,6.19,2l.76.34c2.15,1,4.65,1.9,6.91,1.31a4.33,4.33,0,0,0,2.75-2.36,2.51,2.51,0,0,0,0-2.22l-.66-1.3,9.88-.44a4.11,4.11,0,0,0,1.21-.17c.92-.38,1.3-1.66,1.71-3,.54-1.77,1.14-3.78,3.25-4.12a5.73,5.73,0,0,1,1.31,0,1.87,1.87,0,0,0,1,0,2,2,0,0,0,.55-.65,5.11,5.11,0,0,1,.57-.75c1.52-1.63,4-1.2,5.66-.33.47.24.92.52,1.36.79a8.1,8.1,0,0,0,2.73,1.27,7.87,7.87,0,0,0,3.32-.44,18.6,18.6,0,0,1,1.93-.45,5.94,5.94,0,0,1,3.54.48c0-.07,0-.14.07-.2.72-2.19,1.5-4.37,2.3-6.52A15.27,15.27,0,0,1,381.19,376Z"/><path class="cls-1" d="M286.52,370.33a62.36,62.36,0,0,0,12.31,19.31l.14.15.31-.67a11.49,11.49,0,0,0,4.58,1.35h0a3.25,3.25,0,0,0,3.16-2,5.49,5.49,0,0,0,.1-1.32,5.35,5.35,0,0,1,.34-2.32,4.45,4.45,0,0,1,2.77-2.26,8.48,8.48,0,0,1,8.75,2.21,19.6,19.6,0,0,1,1.28,1.64,5.9,5.9,0,0,0,2.55,2.45,6.11,6.11,0,0,0,.87.19,7.43,7.43,0,0,1,1.22.28,4.3,4.3,0,0,1,1.89,1.36,4.15,4.15,0,0,1,1.88.68l.19.14a7.37,7.37,0,0,0,1.34.84,2.83,2.83,0,0,1,.11-.7,3.84,3.84,0,0,1,2-2.29,8.79,8.79,0,0,1,2.08-.62,9.19,9.19,0,0,0,1.53-.43,2.21,2.21,0,0,0,1.14-1.09.63.63,0,0,0,0-.55l-2.31-5,3.83,3.94a1.45,1.45,0,0,0,1.22.41,3.9,3.9,0,0,0,2.64-1.59,14.67,14.67,0,0,0,1.23-2.22,12.43,12.43,0,0,1,2-3.22,14.2,14.2,0,0,1,1.56-1.36,5.82,5.82,0,0,0,1.93-2.05c.62-1.52-.31-3.39-2.87-5.72a77.89,77.89,0,0,0-8-6.69,3.34,3.34,0,0,0-2.25-.85,4.38,4.38,0,0,0-1.86,1.4c-.92,1-2.08,2.17-3.74,1.74l-1.26-.33.72-1.09a1,1,0,0,0-.7-.6,4.93,4.93,0,0,0-1.36.07,7.24,7.24,0,0,1-1.39.11,3.27,3.27,0,0,1-2.34-1.08l-.13-.18a8,8,0,0,1-3.75.61l-.63-.05-.19-.6a14.79,14.79,0,0,1-.64-3.23,7.84,7.84,0,0,1-3.45.66l-1,0,.13-1a6.4,6.4,0,0,0-4-6.52l0,.14-13.62,5.15a39.18,39.18,0,0,1-5.08,1.66,20.05,20.05,0,0,1-9,0l.63,2C284.3,364.16,285.3,367.32,286.52,370.33Z"/><path class="cls-1" d="M292.33,418.72l.42-.4,9.22,3.3a4.36,4.36,0,0,0,2.77.37,1.1,1.1,0,0,0,.62-.83c0-.24-.06-.31-.08-.33l-4.41-3.27,5.24,1.62a10.83,10.83,0,0,0,7.7-.52c.35-.16.7-.34,1.05-.53a12.36,12.36,0,0,1,2.51-1.09,9.92,9.92,0,0,1,6.51.89,10.88,10.88,0,0,1,3.08-9.22,7.31,7.31,0,0,1-2.12-2.1,3.79,3.79,0,0,1,.39-4.71l.29-.27.4,0a4.73,4.73,0,0,0,3.31-1.08c-1.4-1.24-1.92-3.24-2.4-5a13.4,13.4,0,0,0-1-3l-1.6-.24a1.8,1.8,0,0,1,.5-1,2.14,2.14,0,0,0-.43-.21,5.57,5.57,0,0,0-.9-.2,9.25,9.25,0,0,1-1.16-.26,7.46,7.46,0,0,1-3.48-3.14,16.21,16.21,0,0,0-1.13-1.46,6.54,6.54,0,0,0-6.76-1.71,2.84,2.84,0,0,0-1.66,1.25,4,4,0,0,0-.19,1.56,7.05,7.05,0,0,1-.16,1.79c-.57,2.21-2.92,3.39-5,3.41a10.41,10.41,0,0,1-4.6-1.16l-8.87.28a6.28,6.28,0,0,1-3.08,4,14.75,14.75,0,0,1,.3,7.05l-.25,1.22-1.11-.58c-2.48-1.31-5.42-.72-8.53-.1-1.09.22-2.17.44-3.24.57a39.22,39.22,0,0,1-6.49.13l-18.38-.62a22.3,22.3,0,0,1,2.14,3.42l.54,1.12c1,2.2,2.14,4.47,4.16,5l.2.05a3.86,3.86,0,0,1,1.44.62,2.19,2.19,0,0,1,1.23-1.76c1.27-.59,2.35.23,3.14.84a5.73,5.73,0,0,0,.9.61c.82.39,1.73,0,3.14-.76a8.13,8.13,0,0,1,3.58-1.19h.05a7.29,7.29,0,0,1,3.92,1.59l8.23,5.55a4.74,4.74,0,0,0,1.67.83,5.69,5.69,0,0,0,2.42-.45c1.37-.45,3.08-1,4.44.21a3.44,3.44,0,0,1,.72,1A4,4,0,0,1,292.33,418.72Z"/><path class="cls-1" d="M308.35,327.75c.25.69.49,1.39.71,2.08a45.32,45.32,0,0,1,1.69,20.46,8.28,8.28,0,0,1,5.59,7.56,6.13,6.13,0,0,0,2.76-1.08l1.53-1.11-.05,1.89a13.09,13.09,0,0,0,.42,3.58,6.11,6.11,0,0,0,3.06-.91l1.75-1.07-.33,2s0,.07.07.17a1.35,1.35,0,0,0,.94.41,6.48,6.48,0,0,0,1.08-.1,6.4,6.4,0,0,1,1.92-.06,2.86,2.86,0,0,1,2.09,1.61c0,.09.07.18.1.27a7.31,7.31,0,0,0,1.14-1,5.64,5.64,0,0,1,2.85-1.95,4.9,4.9,0,0,1,3.68,1.15,80.13,80.13,0,0,1,8.22,6.84,13.15,13.15,0,0,1,3.12,3.92c.1,0,.19-.11.29-.15a3.23,3.23,0,0,1,2.81.43,8.13,8.13,0,0,1,1.1,1,4.2,4.2,0,0,0,1.16,1c1.13.51,2.57-.3,4-1.1l.46-.26a6.16,6.16,0,0,1,4.53-.7,2.88,2.88,0,0,1,1.8,1.55,5.11,5.11,0,0,1,.27.72,3,3,0,0,0,.26.63s.1-.06.18-.08a2.65,2.65,0,0,1,1-.06,2.4,2.4,0,0,1,1.45,1.06,2.37,2.37,0,0,0,.29.34.6.6,0,0,0,.54.16,3.36,3.36,0,0,0,2-1.37l.2-.28c1-1.33,2.09-3,4.11-2.88a4.7,4.7,0,0,1,2,.67,3.84,3.84,0,0,0,1.13.46l.34,0a2.68,2.68,0,0,1,1.4.36,2.85,2.85,0,0,1,1,1.27,13.33,13.33,0,0,0,5.83,6.11c1-2.55,2-5.08,3-7.56l1.6-4a12.14,12.14,0,0,1,5.8-7.06,13.14,13.14,0,0,0,3.81-3.45c1.9-3,1.07-7.35-2.46-12.88a8.31,8.31,0,0,1-1.76-4.51,4,4,0,0,1,1.48-3,3,3,0,0,1,1.11-.55,7.39,7.39,0,0,0-3.74-4.89l-1.46-.74,1.38-.88a5.93,5.93,0,0,0,2.49-6.3c-.07-.27-.16-.54-.25-.8a5.42,5.42,0,0,1-.35-3.09,5.67,5.67,0,0,1,.64-1.38,3.65,3.65,0,0,0,.45-.91,3.92,3.92,0,0,0-.28-1.89l-3.66-11.54-.06,0a11.15,11.15,0,0,1-1.79-1.85,5.64,5.64,0,0,0-2.31-2,5.14,5.14,0,0,0-.78-.16,4.2,4.2,0,0,1-2-.72,4.07,4.07,0,0,1-1.32-2.55,29.32,29.32,0,0,1-.35-9.84,6.81,6.81,0,0,0-4.48,1.13l-1-1.56a8.77,8.77,0,0,1,6.8-1.26l.86.2-.15.87a27.77,27.77,0,0,0,.2,10.08,2.57,2.57,0,0,0,.64,1.45,2.65,2.65,0,0,0,1.14.35,8.55,8.55,0,0,1,1,.22,7,7,0,0,1,3.18,2.56,10.18,10.18,0,0,0,1.5,1.56c.09.07.2.1.29.16l.15,0,.05.15a3.64,3.64,0,0,0,3.6,0,3,3,0,0,0,1.15-3.6l-.51-1,1.12-.28a3.43,3.43,0,0,1,2.69.48,4.06,4.06,0,0,1,.91.84,8.56,8.56,0,0,1,3.53-1c1.33-.2,2.58-.38,3.3-1.16s.84-1.89.57-3.61l-.11-.72a9,9,0,0,1,0-4.28,4.14,4.14,0,0,1,2.39-2.57,2.84,2.84,0,0,1,2.53.15,3.52,3.52,0,0,1,.42.29,2,2,0,0,0,.35.22c.14,0,.53-.19.67-.27l5.61-3.08a3.6,3.6,0,0,0-1.92-.42,4.37,4.37,0,0,1-3.45-1.36,2,2,0,0,1-.31-1.83,3,3,0,0,1,.88-1.25l.25-.26-2.29-.05,1.71-1.24a7.31,7.31,0,0,1-2.5-2.57c-.82-1.19-1.38-1.92-2.2-2a4.87,4.87,0,0,0-.66,0,3.33,3.33,0,0,1-3.53-1.56l-.14-.17c-3.42-3.92-9-5.1-14.89-6.06-3.7-.6-7-1-9.72.43-.43.22-.86.48-1.3.74-1.73,1.05-3.69,2.23-5.73,1.24a6.21,6.21,0,0,1-1.07-.71,3.34,3.34,0,0,0-.83-.54c-1-.39-2.19.48-3.44,1.48a5.42,5.42,0,0,1-4.41,1.46,25.54,25.54,0,0,0,12.38,20.29,12.84,12.84,0,0,0-10.09.6,4,4,0,0,0-.42-3.8,6.54,6.54,0,0,0-2.74,7.8c-3,1-6.45-2.22-5.66-5.28-3-.21-4.33,3.81-4,6.81s1.08,6.55-1.12,8.61c-4.38-1.1-9.54-3-10.49-7.39-.23-1.07-.3-2.39-1.27-2.89a2.88,2.88,0,0,0-2,.05L334.71,298c-9.61,2.62-18,8.7-25.79,14.95-.11-.07-.2-.18-.31-.26a14.68,14.68,0,0,0-1.88,9.19A30.28,30.28,0,0,0,308.35,327.75Z"/><path class="cls-1" d="M299.71,435.21a2.61,2.61,0,0,0,.27.22c-.06,0,.09-.15.19-.23,1.83-1.42,3.88-1.28,5.85-1.14a10.56,10.56,0,0,0,3.68-.17,9.64,9.64,0,0,0,3.55-2.58,14.81,14.81,0,0,0,2.43-2.84,19,19,0,0,0,.89-1.81c.78-1.75,1.67-3.74,3.73-4.4a7.43,7.43,0,0,1,1-.23,3.51,3.51,0,0,0,1-.25,2.73,2.73,0,0,0,1.17-2c-2-.85-3.85-1.43-5.62-.95a9.83,9.83,0,0,0-2.12.94c-.38.2-.76.4-1.14.57a12.73,12.73,0,0,1-7.38,1,.09.09,0,0,1,0,.05,3,3,0,0,1-1.79,2.33,3.68,3.68,0,0,1-1.34.24,8,8,0,0,1-2.74-.6l-8-2.88a2.27,2.27,0,0,0-.29,1l-.68,0c1.05,2.59,1.82,5.22,1.49,7.66.15-.09.3-.16.45-.24a4.08,4.08,0,0,1,.74,3.72C297.12,432.78,299,434.53,299.71,435.21Z"/><path class="cls-1" d="M357.44,490.47a6,6,0,0,0,.36-5l-.48-1.23,1.32,0c1.35-.05,2.76-1,4.19-2.72a47.05,47.05,0,0,0,3-4.38c.19-.32.39-.63.61-.95l-.28-.31c-.5-.55-.83-.88-1.14-.87a1.71,1.71,0,0,0-.44.13,3.78,3.78,0,0,1-.87.23,3.55,3.55,0,0,1-2.57-1.08,3.94,3.94,0,0,0-1-.68,4.25,4.25,0,0,0-.74-.14,4.13,4.13,0,0,1-1.47-.39c-1.28-.67-1.6-2.08-1.86-3.22l-.09-.39a2.39,2.39,0,0,0-.83-1.39l-.08,0-.17.21a49.27,49.27,0,0,1-6,5.92,5.54,5.54,0,0,0-1.34,1.38c-.52.93-.27,2.09,0,3.44a8.32,8.32,0,0,1,.19,4l-1.81-.51a6.84,6.84,0,0,0-.21-3.13c-.33-1.5-.69-3.2.17-4.75a6.82,6.82,0,0,1,1.7-1.83,48.39,48.39,0,0,0,5.85-5.77,7.24,7.24,0,0,0,1.93-3.43c.23-1.62-.67-3.17-1.63-4.81a12.54,12.54,0,0,1-1.95-4.69,12.26,12.26,0,0,1,.52-4.45c.18-.72.34-1.42.44-2.1l0,.22a12.9,12.9,0,0,1-5-2.3,8.05,8.05,0,0,0-6.6-2c-.44,0-.87.06-1.31.07a24.36,24.36,0,0,1-5.31-.7L323.2,440.4a2,2,0,0,0-2.37.54c-.14.12-.29.25-.44.36a10.89,10.89,0,0,1-1.75,1.08,6.87,6.87,0,0,0-1.83,1.22,5,5,0,0,0-1,3.65c.23,4.11,2.72,7.54,5.35,11.18,2.46,3.4,5,6.92,5.66,11.14a4.55,4.55,0,0,1,0,.73c2.81.73,5.66,2.72,5.22,5.49,3.17,3.6,7,5.4,11.51,7.1,3.45,1.3,8.14,4.05,6.33,7.27a10.69,10.69,0,0,0,8.29.74Z"/><path class="cls-1" d="M325,469.85c-.58-3.77-2.89-7-5.33-10.32-2.67-3.7-5.44-7.52-5.7-12.18a6.76,6.76,0,0,1,1.51-5,8.64,8.64,0,0,1,2.32-1.59,8.69,8.69,0,0,0,1.47-.89,3.57,3.57,0,0,0,.37-.31,4.52,4.52,0,0,1,1.5-1,4.6,4.6,0,0,1,2.48,0l11.35,2.37a24.68,24.68,0,0,0,4.9.66c.4,0,.81,0,1.21-.06a12.46,12.46,0,0,1,2.66,0,12.89,12.89,0,0,1,5.09,2.31,12.16,12.16,0,0,0,4,2,10.66,10.66,0,0,0-1.23-3.27,19.13,19.13,0,0,1-1.1-2.53c-1-3.17-.25-6.58.6-9.39-.48.26-1,.51-1.42.8a3.22,3.22,0,0,1-1.27,1.95,5.22,5.22,0,0,1-3,.93,5.14,5.14,0,0,1-1.41-.17,14.72,14.72,0,0,1-2.72-1.15,11,11,0,0,0-2.69-1.08,12,12,0,0,0-1.48-.18,4.71,4.71,0,0,1-5-3l-2.72-5.6a8.92,8.92,0,0,0-1.92-2.94,3.1,3.1,0,0,0-1.19-.63l.69,1.89-1.71-.83a4.3,4.3,0,0,1-2.08,2.87,5.5,5.5,0,0,1-1.48.41,5,5,0,0,0-.77.16c-1.27.41-1.91,1.85-2.6,3.38a18.58,18.58,0,0,1-1,2,16.1,16.1,0,0,1-2.72,3.22,11.25,11.25,0,0,1-4.31,3,11.88,11.88,0,0,1-4.36.26c-1.71-.12-3.31-.23-4.45.65a2.49,2.49,0,0,1-1.53.71h-.1a2.24,2.24,0,0,1-1.4-.72c-1.64-1.55-3-2.24-4-2.12a21.06,21.06,0,0,1-1.48,2.79c-1.59,2.6-2.68,6.6-.07,8.17,1.65,1,3.91.17,5.13-1.31a12.34,12.34,0,0,0,2.08-5.33c3.28-1.17,6.16,2.8,6.53,6.25s-.34,7.28,1.6,10.17c1.54,2.3,4.42,3.41,6,5.7,1.35,2,1.55,4.65,3.16,6.43,1.85,2,4.84,2.26,7.63,2.63Z"/><path class="cls-1" d="M188,338.45c.3.75.59,1.48.91,2.14.55,1.15,1.17,2.3,2.14,2.65l.24.07a2.48,2.48,0,0,1,2,2.63l.33,3a2,2,0,0,0,.23.9,1.62,1.62,0,0,0,.59.26,10.08,10.08,0,0,0,4,.35l.41-.05a4.87,4.87,0,0,1,3,.22c1.71.82,2.13,3,2.5,4.92a9.65,9.65,0,0,0,.75,2.64c1.28,2.16,3.87,4.77,6.33,5.56a13.24,13.24,0,0,0,3.17.46c-.57-3,.78-6.12,2-8.9.28-.63.56-1.25.81-1.87a25.17,25.17,0,0,0,1.72-11.77,5.68,5.68,0,0,1,.1-2.36,3.21,3.21,0,0,1,.24-.45,6.57,6.57,0,0,0-.48-.66,10,10,0,0,0-1.7-1.37,26.29,26.29,0,0,0-12.05-4.27l.1-1.06A10.88,10.88,0,0,1,194,332c-.05,0-6.12,1.82-6.84,1.93l-1.31.21A23.24,23.24,0,0,1,188,338.45Z"/><path class="cls-1" d="M206.15,330.83a28,28,0,0,1,12.1,4.48,10.78,10.78,0,0,1,2,1.64,6.12,6.12,0,0,1,.41.48,13.6,13.6,0,0,1,1.66-.92,4.77,4.77,0,0,0,2.22-1.55,4.25,4.25,0,0,0,.34-.88,4.18,4.18,0,0,1,.92-1.8c1-1.07,2.44-1,3.68-.91a3.29,3.29,0,0,0,2.24-.31,4,4,0,0,0,.71-1.16c.44-.9,1-2.13,2.46-2.15h0a3,3,0,0,1,1.55.52,3.92,3.92,0,0,0,.51.25.82.82,0,0,0,.73-.09,5,5,0,0,0,1.59-3.22l1.7-10.63a3.16,3.16,0,0,0,.06-.89,3.6,3.6,0,0,0-1-1.41,3.69,3.69,0,0,1-1.47-2.73,16.84,16.84,0,0,0-14.33-.29q-1.5,6-3,12.07l-4.14-1.47q.25-3.75.49-7.5L210,320.79c-2.46,2.73-5.08,6.43-3.51,9.75C206.4,330.65,206.27,330.73,206.15,330.83Z"/><path class="cls-1" d="M402.23,319.73a5.25,5.25,0,0,1-.65,1.41,3.71,3.71,0,0,0-.44.9,3.76,3.76,0,0,0,.32,2q.15.45.27.9a7.79,7.79,0,0,1-2.17,7.48,9.39,9.39,0,0,1,3.62,6,8.5,8.5,0,0,0,2-1.69c.19-.22.36-.46.54-.69a7,7,0,0,1,2.43-2.29,3.3,3.3,0,0,1,3.17.28,2.87,2.87,0,0,1,.45.39c2.75-1.92,6.72-1.29,9.77.08.84.38,1.67.81,2.5,1.24,2.3,1.2,4.48,2.32,6.86,2.38a17.08,17.08,0,0,0,4-.57c2.13-.47,4.33-1,6.54-.24a12.69,12.69,0,0,1,1.75.78,7.21,7.21,0,0,0,4.6.95l6.7-.12c4.87-.08,9.18-.33,12.54-2.55a21,21,0,0,0-.7-9.31l-.24-.74.7-.36a5.78,5.78,0,0,1,4.41-.39l.47.15.14.46a3.42,3.42,0,0,0,1.87,2,3.46,3.46,0,0,0,4.53-4.64l-.65-1.27,2.07-.13c-.23-.16-.48-.3-.69-.47a8,8,0,0,1-.91-11.16,14.74,14.74,0,0,1,1.43-1.33,12.09,12.09,0,0,0,1.18-1.08c1.67-1.78,2.22-4.43,2.7-6.76a2.07,2.07,0,0,0,.06-.94c-.1-.26-.57-.52-.88-.68l-9.23-5a7.48,7.48,0,0,1-2.72-2.13,8.56,8.56,0,0,1-.76-1.43c-.38-.85-.64-1.37-1.09-1.53a2.75,2.75,0,0,0-.85-.05,6.42,6.42,0,0,1-1,0c-2.72-.37-3.65-3.64-4-4.71a114,114,0,0,1-2.86-13,2.43,2.43,0,0,0-2.1-.39,2.28,2.28,0,0,0-1.74,1.55l-.19.81-.82-.09a44.81,44.81,0,0,1-9.78-2.19,43.61,43.61,0,0,1-6.6-1.7,12.7,12.7,0,0,1-2.35-1h-.05a2.86,2.86,0,0,0-1.42,2.17c0,.34,0,.69,0,1-.06,1.63-.14,3.66-1.77,4.74a5.27,5.27,0,0,1-3.22.61,9,9,0,0,0-1.27,0,9.82,9.82,0,0,0-2.46.78,11.81,11.81,0,0,1-2.5.82l-.18.12a2,2,0,0,1-.3,1.77,4.45,4.45,0,0,1-.54.61,1.68,1.68,0,0,0-.4.47,2.44,2.44,0,0,0,1.94.76,5,5,0,0,1,3.51,1.17,2.08,2.08,0,0,1,.51,1.69l-.07.46-6.71,3.69a2.8,2.8,0,0,1-2,.45,2.61,2.61,0,0,1-1-.54l-.26-.18a1,1,0,0,0-.9,0,2.3,2.3,0,0,0-1.28,1.38,7.61,7.61,0,0,0,.08,3.41l.13.75c.35,2.33,0,4-1.06,5.17s-2.88,1.52-4.4,1.74-2.71.4-3.32,1.31l-1.3,1.94-.4-2.31a1.56,1.56,0,0,0-.71-1l-.2-.12a4.89,4.89,0,0,1-2.24,4.55,5.14,5.14,0,0,1-2.71.77,5.82,5.82,0,0,1-1.17-.13l3.16,10A5.37,5.37,0,0,1,402.23,319.73Z"/><path class="cls-1" d="M571.1,363.67a20,20,0,0,0-1.46-2.55,24.56,24.56,0,0,1-1.38-2.35c-1.16-2.37-1.21-4.69-.13-6.38.26-.4.6-.83.94-1.25,1-1.2,1.37-1.79,1.06-2.15a2.05,2.05,0,0,0-.7-.37,34.92,34.92,0,0,0-20.32-1.8l-3.26.76,2.4-2.34a1.76,1.76,0,0,0-1.42-.47,10.54,10.54,0,0,0-1,.38c-1.08.43-2.44,1-3.74.27a4.56,4.56,0,0,1-1.58-1.73c-.39-.62-.65-1-1-1a1.91,1.91,0,0,0-.52.07,2.25,2.25,0,0,1-2.91-1.47,3.5,3.5,0,0,0-.25-.47.93.93,0,0,0-.65-.35,3.46,3.46,0,0,0-2.29.76c-.26.19-.51.4-.76.61a6.46,6.46,0,0,1-3.83,1.92h-.48l-.29-.38c-1.43-1.87-4.42-1.87-7.15-1.62l-.95.08-.07-.94c-.22-2.69-1-6-3.29-6.44a6.14,6.14,0,0,0-2.65.32l-.79.19a14.48,14.48,0,0,1-5.68.17c-2-.33-3.32-1.18-3.89-2.45a5.42,5.42,0,0,1-.32-2.58l.38-7.82a22.65,22.65,0,0,0-7.93-.88c-.91.06-1.82.18-2.73.31a70,70,0,0,0-8.49,1.92,1.4,1.4,0,0,1,.09.17l-1.72.72a2.52,2.52,0,0,0-.41-.63l-1.62.11a5.54,5.54,0,0,1-.27,3,5.09,5.09,0,0,1-7.16,2.93,5.38,5.38,0,0,1-2.67-2.65,3.91,3.91,0,0,0-1.86.09,22.82,22.82,0,0,1,.45,9.73l-.06.38-.32.22c-4.15,3-9.56,3.06-13.91,3.13l-6.7.11a11.42,11.42,0,0,1-3.58-.33,10.88,10.88,0,0,1-1.9-.82,10.22,10.22,0,0,0-1.49-.67c-1.71-.56-3.58-.15-5.55.29a18.18,18.18,0,0,1-4.47.61c-2.81-.06-5.28-1.35-7.67-2.59-.8-.41-1.6-.82-2.41-1.19-2.73-1.23-6.64-1.87-8.68.41l-1.88,2.11.25-2.82s0-.18-.21-.34a1.43,1.43,0,0,0-1.3-.13,5.38,5.38,0,0,0-1.73,1.73c-.2.25-.39.51-.6.76a10.49,10.49,0,0,1-6,3.56,1.32,1.32,0,0,0-.05.33,7,7,0,0,0,1.46,3.5c4,6.19,4.8,11.2,2.48,14.88a14.69,14.69,0,0,1-4.33,4,14.49,14.49,0,0,0-3.64,3.18,14.23,14.23,0,0,0-1.49,3l-1.6,4c-2,5.1-4.15,10.39-5.9,15.74a2.9,2.9,0,0,0-.24,1.53c.15.53.79,1,2,1.34a41.68,41.68,0,0,0,12.21,1.51A95.25,95.25,0,0,0,424,391.83c1.25-.3,2.58-.73,3-1.68a5,5,0,0,0,.24-.82,4.69,4.69,0,0,1,.55-1.54c1-1.53,2.82-1.64,4.31-1.72l.43,0a22.8,22.8,0,0,0,6.49-1.78,29.14,29.14,0,0,1,6.05-1.79,10.07,10.07,0,0,1,8.49,2.94,5.48,5.48,0,0,1,1.52,3.79,11.43,11.43,0,0,1,4.69.63c1.87.75,3.79,2.67,3.56,5.11a7.57,7.57,0,0,1-.36,1.56,3.16,3.16,0,0,0-.25,1.63,3.44,3.44,0,0,0,1.06,1.35A46.64,46.64,0,0,1,474.91,416l-.56.22,0,0c1.2.68,2.25,1.86,3.62,1.81,3-.13,2.39-4.84.77-7.4l11.29-4.38a10.22,10.22,0,0,1,3.1-6.61,11.74,11.74,0,0,1-.08,13.76c.43,2.35,4.06,1.75,5.88.21s4.29-3.56,6.24-2.17c.8.56,1.16,1.55,1.8,2.29a3.88,3.88,0,0,0,6.33-4.41,6.19,6.19,0,0,1,8.89,1.35,9.62,9.62,0,0,0,5-9.12,4.06,4.06,0,0,1,4.31,4.15c4.58.75,5.85-7.84,10.48-8,1-.05,2.06.37,3.09.28,2.53-.23,3.7-3.14,5.11-5.25a14,14,0,0,1,6.33-5,11.72,11.72,0,0,1-1.18-8l.12-.53.51-.17a27.2,27.2,0,0,0,11.67-7.39l.77-.83.67.92a.35.35,0,0,0,.41.16,3,3,0,0,0,1.83-1.82A9.11,9.11,0,0,0,571.1,363.67Z"/><path class="cls-1" d="M148.8,214.92a3.5,3.5,0,0,0,6.87.77,6.39,6.39,0,0,1-2.84-2.77l6.46.27c-.51-2.23-1-4.46-1.54-6.68a15.08,15.08,0,0,0,9.49,4.55c2.61.23,6.43,1,5.82,3.59a24.39,24.39,0,0,0-13.36,6.16c-.9.82-1.81,1.92-1.59,3.12.42,2.31,3.76,2,6.07,1.58a16.24,16.24,0,0,1,10.08,1.42c1.35.68,2.76,1.82,2.7,3.34a4.5,4.5,0,0,1-.61,1.78c-1.44,2.87-2.94,5.81-5.36,7.93s-6,3.21-8.92,1.84l-.9,4.4a7.19,7.19,0,0,0-3.62-2.07c-1.41-.17-3,.87-2.91,2.28.22,2.34,3.68,1.93,6,2.19a6,6,0,0,1,5.06,6.7,1.88,1.88,0,0,1-1.22,2.44c2.81-.86,5,2.42,6,5.19,1.31,3.72,2.31,7.53,3.31,11.35l.74,2.84c1,3.7,1.7,8.27-1.17,10.8l-3.51.53c2.93,1.22,4.72,4.33,5.23,7.46s0,6.33-.61,9.45c2.81,0,5.75,0,8.25,1.3s4.35,4.31,3.38,6.95c-2,5.43-12.15,3.27-14.18,8.7-1.14,3,2.25,6.67,5.36,5.74-3.87,2.65-8.84,3.08-13.52,2.81-3.38-.19-6.73-.71-10.08-1.22l-12.24-1.88A8.34,8.34,0,0,1,138,326.7c-1.82-1.25-2.56-3.9-4.66-4.58-4.28-1.4-6.82,6.73-11.28,6.06-.14-2.71-4.07-3-6.69-2.22s-6.43.93-7-1.73l11.13-4.13c3.83-1.42,7.82-2.87,11.89-2.54,2.43.2,5,1,7.23.11s3.23-4.74.94-5.57l1.41-3.06a2.26,2.26,0,0,0-2,3c-2,2-5.18-.22-7.3-2.08-4-3.46-8.87-5.64-13.69-7.77,3.5.57,7.09,1.14,10.56.42s6.85-3,7.82-6.4-1.89-7.88-5.38-7.1l13.51-1.79c.76.91,1.53,1.81,2.29,2.71,2.21-.26,1.76-3.52,1.66-5.75a7.34,7.34,0,0,1,5.22-7.19c-2.5-1.84-5.17-3.93-5.84-7s2.16-6.76,5.05-5.65a3.28,3.28,0,0,0-2.24-3.5,9.57,9.57,0,0,0-4.49-.24l-8.95.94a3.41,3.41,0,0,1-1.74-.12c-1.25-.56-1.3-2.45-.49-3.57a11,11,0,0,1,3.28-2.46c4.13-2.66,6.36-7.51,7.33-12.33s.86-9.79,1.49-14.66a3.71,3.71,0,0,1-4.82-2.6c3,.1,3.91-2.06,4.75-4.28C147.08,221.24,148.8,215.11,148.8,214.92Z"/><path class="cls-1" d="M418.53,53.27c.3-1.31-.41-1.18-.74-2.48-2.34,2.19-6.9.68-7.48-2.47a5.24,5.24,0,0,0-5.63,5.45l-5.3-.9L403.89,43a13,13,0,0,0-7.39,12.13c-2.62.1-4.56-3.38-3.12-5.57l-4.06,4.86c-2.26-2.73-.71-7.6,2.7-8.53-3.08-1-6.24,1.41-8.13,4s-3.38,5.79-6.22,7.36-6.52,1.13-9.51,2.5-4.37,6.58-1.21,7.5L354.7,69.66l4.13,5.67c-4.18-.25-9-.26-11.78,2.85a14.87,14.87,0,0,0-2.57,5.1c-1.18,3.3-2.48,6.57-3.89,9.78-1.68,3.82-3.73,7.81-7.4,9.82a6.46,6.46,0,0,0-4.51-2.1c-.24,6-10.64,7.52-10.85,13.55-.06,1.59.69,3.2.27,4.73-.56,2-2.83,3-4.51,4.3-6.69,5.23-3.95,16.82-9.77,23a3.06,3.06,0,0,1-4.53-2.43,18.15,18.15,0,0,0-5.73,6.12c-5,8.83-15.3,18.3-25.18,20.66-4.4,1.05-9.13,1.13-13.12,3.27a14.3,14.3,0,0,0-7.12,14.75c2.25.38,2,3.69,1.2,5.82l-3.54,9.08,4.27.29a8.18,8.18,0,0,1-6.3,9.47l4,3.68c-.19,3.79-4.75,6.32-4.78,10.11,0,2.37,1.75,4.32,3.43,6,2.46,2.45,5.05,4.92,8.28,6.2s7.27,1.1,9.75-1.33c2.13-2.09,2.84-5.48,5.36-7.07,1.62-1,3.66-1.06,5.48-1.65,5.16-1.7,7.72-7.46,8.88-12.77.63-2.87,3.09-6.71,5.41-4.92,1,.8,1.09,2.3,1.08,3.59q-.1,6.07-.19,12.16c0,.66,0,1.33,0,2l4.6-12.07a9.7,9.7,0,0,1,2.45-4.11,4.36,4.36,0,0,1,4-.92,33.79,33.79,0,0,1,4.34-21c-1.84-1-4.87-3.08-4.61-6.23a7.51,7.51,0,0,1,.63-2.22,6.74,6.74,0,0,0,.49-1.55c.18-1.32-.54-2.62-1.29-4a19,19,0,0,1-1-2,5.77,5.77,0,0,1,.61-5.4,3,3,0,0,1,1.46-1,15.05,15.05,0,0,1,1.32-10.28,9,9,0,0,1,5.6-4.58c2.37-.64,4.77-.24,6.92-.55,1.75-.25,3.63-1.31,3.93-2.84L314,144.07l1.23-.51a10.65,10.65,0,0,0,6.18-7.59,24.84,24.84,0,0,0,.31-3.6c.09-2.51.18-5.1,1.75-7.22a13.71,13.71,0,0,1,4-3.27c1.91-1.2,3.56-2.23,3.87-4a5.29,5.29,0,0,0,.08-.8,6,6,0,0,1,.29-1.71c.65-1.72,2.4-2.46,3.95-3.11s2.62-1.17,2.7-2.11a3.46,3.46,0,0,0-.49-1.64,7,7,0,0,1-.65-1.87c-.45-3.09,2.71-5.05,4.81-6.35a5.74,5.74,0,0,0,2.69-3.36,1.43,1.43,0,0,0-.3-1.22l-.94-1.13,1.42-.37a7.43,7.43,0,0,1,5,.47,8.25,8.25,0,0,0,3.62-5.49l.24-1.45,1.21.83a1.07,1.07,0,0,0,1,.11,3.11,3.11,0,0,0,1.81-1.7,11.89,11.89,0,0,0,.6-2.21,11.18,11.18,0,0,1,.88-2.91,4.67,4.67,0,0,1,3.13-2.43c-.87-1.73-1-3.58.32-4.79a2.9,2.9,0,0,1,2.3-.75c1.72.16,3.41,1.64,4.42,3l.29.38A16.94,16.94,0,0,0,373.21,81a5.06,5.06,0,0,0,4.68.88l.6-.25.45.47a4,4,0,0,0,3.46,1.15,8.94,8.94,0,0,0,2.47-1c2.05-1,4.37-2.25,5.86-4.1,1.3-1.59,2-4.15.87-6-.07-.12-.16-.24-.24-.36a4.67,4.67,0,0,1-.72-1.33,4.31,4.31,0,0,1,.19-2.52,22.52,22.52,0,0,1,3.47-6.75l1-1.31.63,1.51a2.83,2.83,0,0,0,4.34.78,5.47,5.47,0,0,0,.52-.67,7.38,7.38,0,0,1,.82-1,4.1,4.1,0,0,1,4.44-.76l.45.21.49,2.79a4.34,4.34,0,0,1,3.95,2.29,7.18,7.18,0,0,1,.78,3.09,19.05,19.05,0,0,1,8.09-3.9A16.76,16.76,0,0,1,418.53,53.27Z"/><path class="cls-1" d="M387,117.82a5.68,5.68,0,0,0-.92-.47,4.62,4.62,0,0,1-2-1.38c-1-1.43-.41-3,.13-4.34a6.69,6.69,0,0,0,.6-2.13,5.14,5.14,0,0,0-1.48-2.92,14.29,14.29,0,0,1-1.21-1.72,13.42,13.42,0,0,1-1.12-3l-.18-.63a27.31,27.31,0,0,0-5.76-10.33,25.85,25.85,0,0,1-7.76-5.62c-1.25-1.23-2.45-2.53-3.58-3.87l0,0a.92.92,0,0,0-.91-.24,2.81,2.81,0,0,0-1.89,1.45,10.55,10.55,0,0,0-.72,2.46,13.16,13.16,0,0,1-.71,2.57,5,5,0,0,1-3,2.76,3.34,3.34,0,0,1-1.36.11,10,10,0,0,1-4.74,6l-.46.25-.45-.26a5.62,5.62,0,0,0-2.94-.71,3.41,3.41,0,0,1,0,1.39c-.32,2-2.12,3.74-3.55,4.64-2.22,1.38-4.2,2.76-3.94,4.49a5.3,5.3,0,0,0,.49,1.35,5.06,5.06,0,0,1,.66,2.59c-.19,2.14-2.13,3-3.85,3.68-1.31.55-2.55,1.07-2.91,2a4.35,4.35,0,0,0-.18,1.16,8.8,8.8,0,0,1-.1,1c-.46,2.6-2.63,4-4.72,5.28a12.36,12.36,0,0,0-3.48,2.79c-1.23,1.66-1.31,3.85-1.39,6.17a27,27,0,0,1-.34,3.9,12.39,12.39,0,0,1-6.13,8.39l4.73,5.23v.38c-.1,2.76-2.89,4.59-5.59,5-2.36.33-4.66-.06-6.69.49a7.29,7.29,0,0,0-4.45,3.68,13.43,13.43,0,0,0-.88,9.94l.44,1.44-1.48-.24a1,1,0,0,0-1,.45,4,4,0,0,0-.35,3.52,18.53,18.53,0,0,0,.93,1.83c.87,1.58,1.77,3.22,1.51,5.16a8.39,8.39,0,0,1-.61,2,6,6,0,0,0-.5,1.68c-.14,1.68,1.33,3.27,4.48,4.86l.92.47-.55.87a31.79,31.79,0,0,0-3.63,25.39l.16.55c.88,3,2,6.78-.26,9.46l-.89,1.07-.66-1.23a18.18,18.18,0,0,1-1.63-12.56,2.45,2.45,0,0,0-2.29.51,8.2,8.2,0,0,0-1.92,3.36l-5.27,13.83-.62-.24c.07.18.12.36.2.53a20,20,0,0,0,2.33,3c5.94,7.52-.64,20,5.16,27.62a6.2,6.2,0,0,1,1.43,2.34c.35,1.59-.92,3-1.65,4.46-1.81,3.65-.27,8,1.27,11.75,1,2.36,2,4.85,4.12,6.32s5.49,1.36,6.7-.89-.29-5,.46-7.36a8.24,8.24,0,0,1,2.42-3.24c2.22-2.11,6.12-4.13,7.88-1.62.52.75.69,1.78,1.47,2.25,1.3.79,2.79-.69,3.55-2a64.48,64.48,0,0,0,8-40.09l3.87,2a10.84,10.84,0,0,1,3-4.5c1.48-1.08,3.82-1.22,5,.21a5.78,5.78,0,0,0,1.1-6.25l6.54-3.82a24.52,24.52,0,0,1-1.94-9c-7.9-.55-11.89-10.11-11.59-18a38.56,38.56,0,0,1,3.8-15.28,6.82,6.82,0,0,1-5.21-2.78,39.08,39.08,0,0,0,20.46-12.58c2.14-2.51,4.58-5.59,7.86-5.28a31,31,0,0,0,3.79-16.81c-.28-4.4-1.36-9.32,1.31-12.83,3.39-4.47,10.25-3.46,15.68-2a12.73,12.73,0,0,1-.12-4.88C388.21,120.29,388.29,118.7,387,117.82Z"/><path class="cls-1" d="M302.77,217.92l-.17-.56c0-.05,0-.1,0-.15a16.12,16.12,0,0,0,1.06,6.87C304,222.27,303.37,220,302.77,217.92Z"/><path class="cls-1" d="M89.57,256.32c-.42,3.15-4.24,4.39-7.36,4.94a5.52,5.52,0,0,0,6,3.95,7.71,7.71,0,0,1-8.81,11.27,4.18,4.18,0,0,0,2.7,4.7c-3.35,1.93-8.47-2.24-11.11.58-1.23,1.32-1,3.39-.66,5.17.38,2.06.94,4.38,2.77,5.38,2.14,1.16,5.08,0,7.07,1.37A19.87,19.87,0,0,1,82,295.61c2.88,2.68,7.55.79,10.75-1.49s6.56-4.7,10.68-3.6c3.06.82,5.32,3.31,8.7,1.4a14,14,0,0,0,4.22-4.49c1.09-1.58,2.22-3.25,2.38-5.17.19-2.25-1-4.46-.74-6.71a10.22,10.22,0,0,1,1-2.92c1.26-2.88,2.65-5.91,5.24-7.71,1.08-.76,2.51-1.52,2.53-2.85,0-1.16-1.14-2.2-.81-3.32s1.74-1.32,2.51-2.14c1.31-1.38.14-3.82-1.59-4.59s-3.73-.47-5.63-.5a15.86,15.86,0,0,1-6.07-1.3,5.57,5.57,0,0,0,3.79-2.57,40.52,40.52,0,0,0-11.27-.13,7.51,7.51,0,0,0-4.42,1.67c-1.15,1.11-1.44,3.24-.19,4.24,2,1.65,2.75,4.85-1,5.86-2.71.73-4-2.24-5.5-4C93.43,251.76,90.37,250.34,89.57,256.32Z"/><path class="cls-1" d="M105,52.88c1.09-2.88,1.33-6.91-1.45-8.25l-2,9.62A32,32,0,0,1,96,44.43l-.33,6.1a10.54,10.54,0,0,0-4.56-2.78c-1.77-.37-3.92.47-4.36,2.22,2.22.37,4.72.93,5.87,2.86S91.82,58,89.83,57a17.17,17.17,0,0,0,8,3.62c.51,3.18-4.21,4.67-7.13,3.29s-5.06-4.19-8.14-5.12c-1.06-.32-2.61-.07-2.68,1a1.91,1.91,0,0,0,.34,1.07c1.39,2.25,3.92,3.5,5.86,5.31s3.24,5,1.56,7a6.79,6.79,0,0,1-2.54,1.64l-13.38,6,11.87.65a5.7,5.7,0,0,1,3,.71c1.36.93,1.64,2.79,1.86,4.44.65,5,2.77,10.88,7.73,11.77,1.8.33,3.73-.11,5.45.51,1.57.56,2.75,1.91,4.3,2.51,2.48,1,5.29-.19,7.43-1.77s4-3.59,6.41-4.71c5.64-2.61,13.56,0,17.65-4.65,4.95-5.68-1.32-16,3.72-21.62-3.55-3.34-9.45,1.7-14.08.17-1.73-.57-3-2-4.47-3.12-4.94-3.8-12-3.52-17,0C101.55,62.18,103.43,57.16,105,52.88Z"/><path class="cls-1" d="M228.06,487.64a4.14,4.14,0,0,0,1,2.12c.58.56,1.49.86,1.71,1.63.16.55-.1,1.2.19,1.69.59,1,2.11,0,2.6-1a10.31,10.31,0,0,0,1-4.67c0-1.14-.21-2.37.38-3.34s2-1.44,3-2.22c3.91-3,.16-9.64-4.34-8.61C228,474.52,227.07,483.21,228.06,487.64Z"/><path class="cls-1" d="M221.59,511.49c1.22.38,2.36,1.8,1.65,2.87-.44.67-1.39.85-1.86,1.49a3,3,0,0,0-.42,1.2q-.89,4.76-1.78,9.49a1.75,1.75,0,0,0,0,1c.25.54,1,.65,1.56.69,1.53.11,3.42,0,4.12-1.34.37-.72.4-1.76,1.16-2a1.48,1.48,0,0,1,.86,0,5.11,5.11,0,0,1,3.78,4.62c1.58-1.9,3.26-4.07,3.08-6.53-.08-1-.43-1.88-.59-2.83a13.27,13.27,0,0,1,.32-4.52c.42-2.27.48-5.14,1.35-7.27.79-1.93,3.18-3.69,3.56-5.63.7-3.66-1.43-4.85-4.47-5-2.86-.14-8,1.84-10.71,2.81-5.26,1.88-5.54,4.34-5.25,10.07A30.56,30.56,0,0,0,221.59,511.49Z"/><path class="cls-1" d="M265.86,551.07a3.2,3.2,0,0,0,.9,1.24,4.25,4.25,0,0,0,2,.6,17.33,17.33,0,0,1,11.79,7.65,4.61,4.61,0,0,0,1.18,1.44c.92.64,2.16.44,3.29.41,3.12-.07,6.56,2,6.71,5.14,0,.85-.06,1.9.67,2.32a2,2,0,0,0,1.61,0c2.94-.93,6.45-2.56,6.59-5.65a20.83,20.83,0,0,0-.66-3.63c-.78-5.72,6.4-10,6.2-15.76-4,0-7.45,4.61-11.29,3.42-.82-.25-1.54-.75-2.35-1-2.82-.84-6.41.7-9.41.44-2.71-.23-4.87-1.38-7.41-2.06C270.63,544.22,262.14,543.13,265.86,551.07Z"/><path class="cls-1" d="M153.62,505.17c-3.17-1.37-7-.28-10.1,1.25a12.61,12.61,0,0,1,11,4.39c.92-1.19,1.84-2.92.85-4.06A6.68,6.68,0,0,0,153.62,505.17Z"/><path class="cls-1" d="M419.32,545.92c1.24,1.41,2.92,2.67,4.8,2.6a101.69,101.69,0,0,0-11.89-11.31c-1.89-1.53-7-.37-9.25.33,1.9,1.08,4.68,1.21,6.86,1.8C414.33,540.54,416.25,542.55,419.32,545.92Z"/><path class="cls-1" d="M514.57,428.7c1.43,3.3-2.2,7.2-.81,10.53A6.24,6.24,0,0,0,520,436.7a17.07,17.07,0,0,1,1.89-2.93,7,7,0,0,1,1.81-1.11l10.76-5.21c-.09-1-.17-2.07-.26-3.1a49.75,49.75,0,0,0,9.56-2.24,5.45,5.45,0,0,0,2.56-1.46,2,2,0,0,0,0-2.7c-.91-.79-2.31-.2-3.4.32a22.63,22.63,0,0,1-11.79,2.17,6.39,6.39,0,0,1-2.72-.71c-5-2.91-5.88-6.71-12.55-4.67a65.75,65.75,0,0,0-12.2,4.82C492.62,426,512.74,424.46,514.57,428.7Z"/><path class="cls-1" d="M277,249.7a57.22,57.22,0,0,0-6.54,2.81,15.4,15.4,0,0,0,7.19,2.39,3,3,0,0,0,.33,1.45,1,1,0,0,0,1.29.41,1.43,1.43,0,0,0,.39-.42,10.94,10.94,0,0,0,1.71-7.06,9.32,9.32,0,0,0-7.49.81Z"/><path class="cls-1" d="M288.65,279.62a5,5,0,0,1-1.56,1.45,1.7,1.7,0,0,1-2-.24c-.5-.56-.39-1.42-.49-2.18s-.79-1.6-1.47-1.27a1.49,1.49,0,0,0-.51.52L281.16,280a2.54,2.54,0,0,0-.28,3.18c.78,1.78,1.8,3.78,3.68,4.27a4.81,4.81,0,0,1,1.26.36,1.54,1.54,0,0,0,.55.26,1,1,0,0,0,.74-.34c3.66-3.23,6.35-8.37,6.2-13.31C291.36,275.13,290,278,288.65,279.62Z"/><path class="cls-1" d="M271.33,283.52a2.8,2.8,0,0,0,.82,2.6,8,8,0,0,0,2.39,1.52l1.71.84a2.15,2.15,0,0,0,1.3.31c1.11-.22,1.12-1.84.65-2.89a5.66,5.66,0,0,0-2.68-3,3.17,3.17,0,0,0-3.74.71Z"/><path class="cls-1" d="M282.74,293.71a2.42,2.42,0,0,1,1.84,2.46,13.31,13.31,0,0,1-6.28-4.3Z"/><path class="cls-1" d="M385.85,236a1.61,1.61,0,0,1,2.39-.13,2.18,2.18,0,0,1,.21,2.55,5.29,5.29,0,0,1-2.62,1.88l-4.31,1.87a2,2,0,0,1-1.87.16,1.38,1.38,0,0,1-.3-1.78,4.12,4.12,0,0,1,1.45-1.33Z"/><path class="cls-1" d="M524.33,49.16c.9,1.21,2.52,1.69,3.48,2.86.77.95,1.35,2.46,2.57,2.37s1.57-1.71,2-2.9A33.58,33.58,0,0,1,534,48a4.12,4.12,0,0,0,.08-3.77c-1-1.61-3.37-1.68-4.76-3-.57-.53-.94-1.23-1.48-1.79a4.59,4.59,0,0,0-3.71-1.31C524.58,41.33,522.3,46.43,524.33,49.16Z"/><path class="cls-1" d="M142.57,206.31a5.75,5.75,0,0,1,2.94-1.15c-.37,1-.73,1.94-1.1,2.92a2.48,2.48,0,0,1-.94,1.4,2.62,2.62,0,0,1-1.24.23c-2.47,0-5.18.37-6.86,2.18-.53-2.43,1.8-4.52,4-5.62a19.29,19.29,0,0,0,3.84-2.1Z"/><path class="cls-1" d="M137.94,271a19.38,19.38,0,0,0,3.23.18,3,3,0,0,1-2.3,2.32,9.19,9.19,0,0,1-3.43,0A8.15,8.15,0,0,1,138.6,270Z"/><path class="cls-1" d="M163,501.65a2.74,2.74,0,0,1,1.08-1.69,1.28,1.28,0,0,1,1.78.36,5.66,5.66,0,0,1,.22,1.16c.24.86,1.21,1.25,2.06,1.53,1.23.39,2.59.92,3.11,2.1s-.73,2.92-1.86,2.28c-.47-.27-.71-.85-1.19-1.12a3.79,3.79,0,0,0-1.84-.11,3.18,3.18,0,0,1-2.47-4.76Z"/><path class="cls-1" d="M132.2,510.68c-2.72,2.71-5.37,5.49-8,8.23a17.66,17.66,0,0,0,6.85-1.35c2.09-1,3.81-3.21,3.59-5.54C134.59,512,134.22,508.65,132.2,510.68Z"/><path class="cls-1" d="M173,202.37a2.62,2.62,0,0,1,1.88,3.2l-3.1.05Z"/><path class="cls-1" d="M675.82,278.19a1.65,1.65,0,0,0,.42.5C676.11,278.51,676,278.36,675.82,278.19Z"/><path class="cls-1" d="M409.08,560.17c-.29-.25-.6-.49-.91-.73A3.79,3.79,0,0,0,409.08,560.17Z"/><path class="cls-1" d="M444.23,160.86l-15.14-7.33,1.55-4.71,1.06.88a2.06,2.06,0,0,0,3.07-1.6c-.08-1-1-2-1.92-2.86l-.14-.14a33.91,33.91,0,0,1-8-12.53,9.44,9.44,0,0,1-.72-4.3,10.9,10.9,0,0,1,.76-2.66,13.65,13.65,0,0,0,.56-1.67,9.18,9.18,0,0,0-.72-5.46,19.15,19.15,0,0,0-6.48-8.32l-.2-.14a6.41,6.41,0,0,1-1.64-1.5,5.49,5.49,0,0,1-.81-2.13,14.1,14.1,0,0,1,.95-8.38l.3-.65a5.71,5.71,0,0,0,.74-2.31c0-1.58-1.63-2.89-3.06-4-4.82-3.9-7.39-8-7.63-12.22a12.89,12.89,0,0,1,3.07-8.8,8.11,8.11,0,0,0-.58-4c-.5-.92-1.76-1.63-2.61-1.18l-1.14.6-.71-4a2.25,2.25,0,0,0-1.93.54,6.29,6.29,0,0,0-.59.75,8.23,8.23,0,0,1-.69.87,4.45,4.45,0,0,1-4.05,1.21A4.82,4.82,0,0,1,395,63.44a20.82,20.82,0,0,0-2.42,5.11,2.77,2.77,0,0,0-.18,1.43,3.22,3.22,0,0,0,.45.78c.1.15.21.3.3.45,1.68,2.68.66,6.1-1,8.14s-4.25,3.45-6.46,4.59a10.66,10.66,0,0,1-3,1.16A5.79,5.79,0,0,1,378,83.82a7.08,7.08,0,0,1-5.91-1.28,19,19,0,0,1-3.89-4.19L368,78a5.48,5.48,0,0,0-3.11-2.25A1.1,1.1,0,0,0,364,76c-1,.86.1,2.85,1,4,1.15,1.37,2.38,2.7,3.66,4A24,24,0,0,0,376,89.27l.33.23a29.14,29.14,0,0,1,6.31,11.21l.18.64a12.09,12.09,0,0,0,.95,2.58,13.38,13.38,0,0,0,1.06,1.5,6.6,6.6,0,0,1,1.87,4.08,7.73,7.73,0,0,1-.73,2.81c-.48,1.21-.76,2-.35,2.55a3,3,0,0,0,1.21.77,7.39,7.39,0,0,1,1.24.65c2.25,1.57,1.95,4.31,1.7,6.73-.19,1.76-.39,3.59.34,4.88l-.49.27a9.22,9.22,0,0,1,5,3c2.38,3.31.51,7.95-1.83,11.29A46.83,46.83,0,0,1,386.2,150a15,15,0,0,0-2.69,2.89c-1,1.56-1.22,3.46-1.79,5.22a15.25,15.25,0,0,1-10.49,9.92,73.46,73.46,0,0,1,0,24.22c-.73,4.33-1.43,9.73,2.18,12.22,1.49,1,3.41,1.25,5,2.12s2.87,3,1.81,4.45c2.48,0,4.13,2.42,5.78,4.26s4.82,3.23,6.39,1.32c.84-1,.77-2.54,1.54-3.59,1.16-1.58,3.5-1.42,5.38-2a17.63,17.63,0,0,0,4.29-2.31,28.22,28.22,0,0,1,14.45-4.27c.47-2.89,3.75-3.55,6.92-3.22l-.85-.49,8.72-15.14a5.6,5.6,0,0,1,2-2.29,7.8,7.8,0,0,1,1.5-.59,3.84,3.84,0,0,0,1.34-.6,1.39,1.39,0,0,0-.27-.48,2.94,2.94,0,0,1-.59-1.13,3,3,0,0,1,.53-2.18,86,86,0,0,1,6.55-10.2,10.51,10.51,0,0,1,4.08-3.49C448.07,162.87,445.18,161.32,444.23,160.86Z"/><path class="cls-1" d="M434.15,266.17a8.63,8.63,0,0,1-.18-4c.2-1.7.27-2.76-.51-3.36a3.17,3.17,0,0,0-.36-.23,2.88,2.88,0,0,1-1.2-1.14,3,3,0,0,1,.12-2.38c.85-2.4.2-5.53-1.81-6.9l-.1.31c-2.87-.94-5.44-1.66-7.78-.9a13.58,13.58,0,0,0-2,1,17.92,17.92,0,0,1-1.82.88,6.59,6.59,0,0,1-2.34.49,4.06,4.06,0,0,1-2.71-.91,6.16,6.16,0,0,1-1.39-1.95,4.44,4.44,0,0,0-.93-1.39,3.5,3.5,0,0,0-2.71-.4c-.4.08-.8.18-1.19.28a12.24,12.24,0,0,1-2.55.44,9.45,9.45,0,0,1-1.94-.2A33.74,33.74,0,0,1,398.81,261c-3.78-.26-6.24-3.94-8.36-7.08s-5.43-6.47-9.1-5.53c-5.17,1.31-4.87,8.74-7.59,13.33-.85,1.45-2.09,2.68-2.67,4.25a7.81,7.81,0,0,0-.43,2.35l0,0c.76.64,2.22-.08,3.24-.89,1.29-1,3.24-2.56,5.3-1.76a5.37,5.37,0,0,1,1.29.81,4.94,4.94,0,0,0,.74.51c1.13.54,2.49-.29,3.94-1.16.48-.29.95-.57,1.41-.81,3.51-1.81,7.77-1.12,10.88-.61,6.25,1,12.18,2.29,16,6.68l.15.18a2.66,2.66,0,0,0,1.09.93,2.77,2.77,0,0,0,.81,0,5.81,5.81,0,0,1,1-.05c1.77.14,2.74,1.56,3.59,2.81a5.45,5.45,0,0,0,1.95,2.05c1,.42,2.13,0,3.45-.59a11.13,11.13,0,0,1,3-.91,11.27,11.27,0,0,1,1.54,0,3.73,3.73,0,0,0,2.12-.3c.83-.55.88-1.86.93-3.25,0-.38,0-.77.07-1.13a4.86,4.86,0,0,1,1.79-3.26A4.75,4.75,0,0,1,434.15,266.17Z"/><path class="cls-1" d="M395.56,240.23a9.26,9.26,0,0,0,3.4-2.14c1.85-1,3.44,1.74,3.65,3.82.06.66.09,1.32.12,2a7.68,7.68,0,0,0,1.89.22,9.47,9.47,0,0,0,2.14-.38c.43-.11.86-.22,1.3-.3a5,5,0,0,1,4.27.81,6.09,6.09,0,0,1,1.39,2,4.56,4.56,0,0,0,.93,1.39,3.25,3.25,0,0,0,3.15.1,16.16,16.16,0,0,0,1.62-.79,14.2,14.2,0,0,1,2.33-1.08,12.28,12.28,0,0,1,7.22.36l.2-.13a5.53,5.53,0,0,0,2.22-6.57l-.17-.41a4.85,4.85,0,0,1-.5-1.75,5,5,0,0,1,.1-1.06,2.63,2.63,0,0,0,.07-.7,2.79,2.79,0,0,0-.7-1.23l-.39-.52c-2.05-2.91-1.3-6.76.08-9.39l.3-.56a6.26,6.26,0,0,0,.87-2.09,2.65,2.65,0,0,0-1.69-2.72l.33-1c-4.36,2.66-10.35,2.9-15.7,2.9-6.89,0-14.93.74-18.68,6.53l2.89,1.81A12.5,12.5,0,0,0,395.56,240.23Z"/><path class="cls-1" d="M756,238.16c-5.8-4.49-15.6,6.41-20.65,1.08a4.76,4.76,0,0,1,1-7.05A14.59,14.59,0,0,0,724.05,239a57,57,0,0,1-10.17-29.64,9.92,9.92,0,0,1-4.31-8.36c-.45,5.7-5.89,9.49-10.79,12.44a9.57,9.57,0,0,1-3.37,1.48c-3.4.52-6.5-3.66-5-6.76s6.69-3.29,8.4-.3q.6-6,1.21-12a5.32,5.32,0,0,0-.13-2.48c-1.13-2.93-5.41-1.8-8.46-1a15.87,15.87,0,0,1-16.77-6.59l4.82-.71a29,29,0,0,1-4.57-19.6c.44-3.31,2.26-7.83.07-10.35a2.35,2.35,0,0,1-2.2.84c-2.16-3.63-2.48-8.33-5.43-11.36a41.8,41.8,0,0,0-3.43-2.76,14.87,14.87,0,0,1-5.28-11.53,6.49,6.49,0,0,0-.2-2.41c-.59-1.5-2.35-2.1-3.72-3s-2.47-2.88-1.28-4c-1.41-4.7-5.3-11.13-6.72-15.83-.71-2.36-1.46-4.8-3.1-6.64-1.93-2.17-4.81-3.2-7.07-5-4-3.22-5.68-8.46-7.81-13.15s-5.59-9.55-10.7-10.17a8.66,8.66,0,0,1,7.39.37,19.53,19.53,0,0,1,1.37-18.26c1.55-2.41,3.75-5.2,2.51-7.78-.73-1.53-2.45-2.32-3.44-3.69-2.08-2.88-.31-6.84,1.38-10s3.13-7.34.66-9.88c1.74-4.08-3.94-9.94-7.65-7.49-1.41-5.44-8.16-8.76-13.33-6.55A6,6,0,0,1,602.72,0L592.38.4c-2.51.1-5.1.22-7.36,1.33s-4.09,3.48-3.75,6c.39,2.91,3.33,4.64,5.2,6.9s1.74,6.86-1.19,7c4.25.86,5.11,7.94,1.2,9.8a9.52,9.52,0,0,1-5.73-11.24,12,12,0,0,0-3.41,14l-7.91,0c-1.12,2.46-1.24,5.24-1.77,7.89s-1.66,5.44-4,6.75-6.08.11-6.35-2.59c-.28-2.94,3.35-6,1.53-8.36a3.32,3.32,0,0,0-2.28-1.11A6.31,6.31,0,0,0,549.92,44c.65,3.06,3.23,7.06.47,8.55C548.22,53.68,546,51,545,48.77l-7.08,10.78a6.43,6.43,0,0,0-1.17,2.55,6.58,6.58,0,0,0,.59,3.07c1.78,4.9,2.66,11.56-1.8,14.26s-11.31-1-15.28,2.46a10.32,10.32,0,0,1-4.41-10c3.84,0,8.68-.67,9.8-4.35-6.76-5-16.22-9.79-23-4.83,1,1.77,2.94,2.76,4.45,4.13,5.19,4.71,4.65,12.86,3.7,19.8,3.18-.94,7.29-1.6,9.24,1.09,2.31,3.19-.3,9,3.15,10.92a11.36,11.36,0,0,0-9.59-1.29c-.29-1.6-.57-3.21-.86-4.82-3.62-.71-6.94,2.29-8.83,5.47s-3.15,6.88-6,9.26c-2.37,2-6.13,3.87-5.35,6.86a6.32,6.32,0,0,1,6.8,6.86,16.92,16.92,0,0,1,9.64,8c-8.83-1.49-20.8-1.08-29.47-3.32l-1.91,4.68c6.37.67,14.45,3,14.84,9.42a2.89,2.89,0,0,1-.76,2.38,3.32,3.32,0,0,1-2.19.56,19.52,19.52,0,0,1-10.43-3.1c-2.32-1.51-6-3.22-7.22-.72a19.15,19.15,0,0,1-9.11-13.37c-.44-2.78-.28-5.75-1.58-8.26s-4.9-4.12-6.95-2.18c.6-2.89-3.05-4.59-5.9-5.33s-6.38-3-5.24-5.69c.85-2,3.75-2.18,5.68-1.18s3.4,2.75,5.32,3.76c6.18,3.25,14.63-2.12,20.42,1.77,1.29.87,2.31,2.14,3.73,2.77,2.58,1.14,5.64-.25,7.66-2.23s3.44-4.51,5.49-6.46c2.3-2.17,5.47-3.72,6.59-6.68.72-1.88.45-4,.17-6-.77-5.46-3.33-12.46-8.82-12-1.51.12-2.9.85-4.39,1.14-6.64,1.27-11.46-6.15-17.67-8.85-7.36-3.2-16.05.6-23.83-1.35-5.84-1.47-11.4-6.13-17.16-4.4a8.43,8.43,0,0,0-4.38,3.15A17.18,17.18,0,0,1,420.74,66a17.16,17.16,0,0,0-8.34,4,11.29,11.29,0,0,0-3.74,8.68c.21,3.67,2.54,7.32,6.93,10.87,1.67,1.35,3.75,3,3.76,5.5a7.19,7.19,0,0,1-.91,3.11l-.29.61a12.31,12.31,0,0,0-.82,7.26,3.67,3.67,0,0,0,.5,1.41,4.94,4.94,0,0,0,1.19,1l.22.15a21.13,21.13,0,0,1,7.13,9.15,11.06,11.06,0,0,1,.79,6.58,14.24,14.24,0,0,1-.63,1.91,9.26,9.26,0,0,0-.65,2.2,7.87,7.87,0,0,0,.62,3.45A32,32,0,0,0,434,143.77l.13.14c1.09,1.08,2.33,2.31,2.47,4.05a3.67,3.67,0,0,1-2.11,3.44,3.92,3.92,0,0,1-2.88.34l-.27.82,13.67,6.61c3.68,1.78,5.38,4.16,4.67,6.52l-.15.49-.49.14a8,8,0,0,0-3.7,3.05,84.49,84.49,0,0,0-6.4,10c-.12.2-.37.63-.33.83a2.36,2.36,0,0,0,.27.43,2.73,2.73,0,0,1,.61,1.24c.3,1.79-1.52,2.38-2.61,2.73a7.75,7.75,0,0,0-1.17.45,3.92,3.92,0,0,0-1.28,1.58l-8.54,14.83a15.93,15.93,0,0,1,1.95.44l3.29,1c.21,1.33.43,2.67.65,4a16.82,16.82,0,0,1,17.44,2.84A35.1,35.1,0,0,0,433,215.13a11.53,11.53,0,0,1-2.49,2.4,4.55,4.55,0,0,1,2.38,4.47,7.76,7.76,0,0,1-1.09,2.77l-.28.52c-1.13,2.14-1.78,5.22-.21,7.44.1.15.22.3.34.45a4.3,4.3,0,0,1,1.09,2.18,4.78,4.78,0,0,1-.09,1.23,2.73,2.73,0,0,0-.08.65,3.55,3.55,0,0,0,.35,1.08l.19.47a7.52,7.52,0,0,1-1.76,7.91c2.7,1.91,3.52,5.92,2.45,8.92a2.29,2.29,0,0,0-.24,1,1.81,1.81,0,0,0,.49.37,4.79,4.79,0,0,1,.53.34c1.66,1.27,1.44,3.28,1.24,5.06a6.9,6.9,0,0,0,.07,3.09c.5,1.34,2.16,2.05,3.54,2.52a42.65,42.65,0,0,0,6.47,1.66,44,44,0,0,0,8.79,2.05,4.26,4.26,0,0,1,2.83-2.14,4.11,4.11,0,0,1,4.13,1.16l.17.21,0,.26a111.46,111.46,0,0,0,2.87,13.11c.6,2.12,1.39,3.22,2.4,3.36a3.74,3.74,0,0,0,.67,0,3.32,3.32,0,0,1,3.71,2.69,7.75,7.75,0,0,0,.58,1.12,6,6,0,0,0,2.09,1.55l9.23,5a2.85,2.85,0,0,1,1.76,3.65c-.51,2.44-1.14,5.49-3.17,7.66a14.15,14.15,0,0,1-1.34,1.23,11.45,11.45,0,0,0-1.25,1.16,6.08,6.08,0,0,0,.69,8.43,14,14,0,0,0,1.16.8,13.23,13.23,0,0,1,1.44,1,69.71,69.71,0,0,1,9.48-2.19c1-.14,1.92-.27,2.88-.33a24.53,24.53,0,0,1,9.32,1.19l.68.22-.45,9.25a4,4,0,0,0,.15,1.72,3.3,3.3,0,0,0,2.5,1.38,12.89,12.89,0,0,0,5-.15l.74-.19a7.85,7.85,0,0,1,3.48-.34c1.82.35,4.06,1.91,4.7,7.2,2.8-.17,5.7,0,7.53,2a6.21,6.21,0,0,0,2.27-1.43c.27-.23.54-.45.82-.66a5.26,5.26,0,0,1,3.7-1.13,2.76,2.76,0,0,1,1.88,1.1,4.28,4.28,0,0,1,.43.75,1.73,1.73,0,0,0,.33.52,1.52,1.52,0,0,0,.52-.06,3.75,3.75,0,0,1,1.1-.1,3.31,3.31,0,0,1,2.35,1.9,3.19,3.19,0,0,0,.9,1.09c.48.26,1.13,0,2.13-.37.41-.16.81-.32,1.21-.44a3.35,3.35,0,0,1,3.53,1.4,2.81,2.81,0,0,1,.17.35,37.07,37.07,0,0,1,20.08,2.15,3.4,3.4,0,0,1,1.44.89c1.4,1.61,0,3.32-1,4.57a9.62,9.62,0,0,0-.82,1.08c-.71,1.1-.62,2.79.23,4.53a21.21,21.21,0,0,0,1.28,2.17,20.2,20.2,0,0,1,1.59,2.81,11,11,0,0,1,.38,7.69,4.73,4.73,0,0,1-3.32,3.09,2.37,2.37,0,0,1-1.38-.19,29.09,29.09,0,0,1-11.32,7.09,9.86,9.86,0,0,0,1.17,6.38,48.3,48.3,0,0,1,9.9-1.93,5.22,5.22,0,0,1-4.1,5.12l1.17,3.49a5.34,5.34,0,0,1-6.73.27,5.27,5.27,0,0,0-1.92,2.8,7.65,7.65,0,0,1,4.79,9.63c-1.37-.72-2.88.92-3.13,2.44s.07,3.21-.7,4.55-2.49,2-3,3.46c-1,2.59,2.28,4.68,5,5.38s6.09,2.09,5.83,4.85c5.6-2.22,13.11,1.35,17.8,5.82a3.31,3.31,0,0,1,.58-.21,4.24,4.24,0,0,1,3.24.5,7.86,7.86,0,0,1,2.62,3.21,7.3,7.3,0,0,0,5.17-5.77l.16-1.07,1,.3a3.75,3.75,0,0,0,4.1-1.52l.25-.39.47,0c2.16-.11,2.88,1.81,3.48,3.39a7.11,7.11,0,0,0,1.2,2.3c.86.88,2.47.84,3.91.72l12.75-1c4.68-.36,10.49-.82,15.43,1.46l1.21.56-.94.95c0,.05-.13.14,0,.4a1.62,1.62,0,0,0,1.26.94,6.06,6.06,0,0,0,2.23-.5,13.81,13.81,0,0,1,1.79-.52,11,11,0,0,1,1.87-.14,4.84,4.84,0,0,0,4.18-1.7,10.54,10.54,0,0,1,2.16-1.58,4,4,0,0,1,4.25.65,2.35,2.35,0,0,1,.3.33,3.52,3.52,0,0,1,.75-.28,7,7,0,0,1,5.49,1.58l.36.29c1.62,1.32,3.46,2.8,5,2.15l.77-.33,3.33,6a5.86,5.86,0,0,0,.59-1.72,7,7,0,0,1,1.21-2.93c1.69-2,4.72-1.55,8.09,1.18a6.38,6.38,0,0,0,4.33,1.66,1.32,1.32,0,0,0,1-.67l1.91-3.22-.16,3.73a1.61,1.61,0,0,0,.54,1.21,1.55,1.55,0,0,0,1.23.46,1.72,1.72,0,0,0,1.39-2,3.81,3.81,0,0,0-.24-.64,3.69,3.69,0,0,1-.42-1.85c.13-1.38,1.28-2.07,2.21-2.63.65-.4,1.26-.77,1.35-1.22a2.39,2.39,0,0,0-.4-1.27,7.11,7.11,0,0,1-.42-.94,2.81,2.81,0,0,1,.48-2.6c-5.24-2.8-10.94-4.91-15.12-9.09a20.28,20.28,0,0,1-3.24-4.24c-2.1-3.66-3-8-5.45-11.4s-7.31-5.89-10.87-3.62q.94-12.68,1.88-25.34a8.66,8.66,0,0,1,5.14,1.7l7.24-12.65a6.79,6.79,0,0,1-6.4-6.66l5.59.63a67.37,67.37,0,0,1-16.19-15.73,8.29,8.29,0,0,0-1.78,5.59c-1.64,1.77-4.62-.13-5.72-2.28s-1.93-4.91-4.25-5.58c-1.35-.39-2.82.11-4.2-.15-3.48-.63-3.73-6.74-.31-7.66-4.27-4.4-4.71-11.14-4.91-17.27,0-1.66,0-3.54,1.2-4.68,1.57-1.47,4.32-.71,5.65,1s1.64,3.95,1.89,6.09c1.09,2.06,4.63,1.15,5.47-1s-.14-4.62-1.31-6.64-2.58-4.07-2.64-6.4a7.26,7.26,0,0,1,5.73.88c-3-3.06-1.2-8.24,1-11.91a84.15,84.15,0,0,1,9-12l2.72,4.69A19.63,19.63,0,0,1,672,275.52a9,9,0,0,1,3.85,2.67c-.68-1.19.21-3.1,1.63-3.62,1.63-.6,3.43,0,5.06.62l20.65,7.7-5.76-7.48,13.15,1.8a18.06,18.06,0,0,1,10.16-11.87l2.91.65c-1.55-5.19,4.19-11,9.39-9.41.31,1.1.61,2.19.92,3.28a20.62,20.62,0,0,1,9.41-1.83c0-1.38.08-2.77.13-4.15l8.9-2.72C755.26,247.13,760,241.2,756,238.16Z"/><path class="cls-1" d="M640.06,459.88c.59.33,1.58-.35,2.21-1.15l.3-.4c.76-1,1.71-2.28,3.24-2.52a4.89,4.89,0,0,1,1.44,0l.46,0a10,10,0,0,0,3.65-.75l7.08-2.4a2.09,2.09,0,0,0,1.12-.74l-.28-.24a4,4,0,0,1-.37-.34A2.74,2.74,0,0,1,662,447a4.24,4.24,0,0,1,1.19.86,4.1,4.1,0,0,0,.56.47,3.9,3.9,0,0,0,1.15.4l7.39,1.8a5.33,5.33,0,0,0-.25-5.08,2.68,2.68,0,0,1-.74.23l-.63.09-3.32-5.94c-2.27.43-4.38-1.27-6.11-2.68l-.36-.29a5.22,5.22,0,0,0-3.87-1.21,1.23,1.23,0,0,0-.91.73l-1.72-.75c0-.1.11-.25-.15-.49a2.14,2.14,0,0,0-2.13-.33,8.87,8.87,0,0,0-1.75,1.31,8.34,8.34,0,0,1-2.68,1.79,8.16,8.16,0,0,1-2.69.37,9.85,9.85,0,0,0-1.58.12,9.42,9.42,0,0,0-1.51.44,7.61,7.61,0,0,1-2.94.6,3.45,3.45,0,0,1-2.91-2.12,2.43,2.43,0,0,1-.15-1.26c-4.29-1.66-9.23-1.27-13.63-.93l-12.76,1c-1.86.15-4,.18-5.39-1.28a8.46,8.46,0,0,1-1.61-2.94c-.5-1.33-.81-1.95-1.23-2.13a5.69,5.69,0,0,1-4.86,2,9.1,9.1,0,0,1-7.19,6.54l-.68.11-.3-.62a7.29,7.29,0,0,0-2.28-3.1,2.38,2.38,0,0,0-1.32-.3c.08.09.17.18.24.27,1.55,1.86,2.82,4.18,5.07,5.07,1.92.75,4.06.27,6.12.26,5.09,0,9.67,2.9,13.91,5.71,2.65,1.75,5.4,3.62,6.88,6.43s1.18,6.83-1.51,8.52c5-2,10.86-3.92,15.5-1.21a10.46,10.46,0,0,0,3,1.6c1.34.28,2.69-.28,4-.45a5.46,5.46,0,0,1,1.67.08Z"/><path class="cls-1" d="M682.33,475.3c-.19-.26-.36-.53-.54-.79a4.6,4.6,0,0,0-4.74-2.59,10.59,10.59,0,0,1-3.55-.78l-.2-.09-.14-.18a1.53,1.53,0,0,1-.24-1.45A2.38,2.38,0,0,1,674.5,468c.19-.06.39-.1.59-.15a1.75,1.75,0,0,0,.77-.26.84.84,0,0,0-.49-.67,3.52,3.52,0,0,0-2.09.37l-3,1.13,1.94-2.57a1.36,1.36,0,0,0,.2-1.18,3.1,3.1,0,0,0-1.57-1.91,9.8,9.8,0,0,0-3.48-.7c-.55-.05-1.1-.09-1.64-.17a3,3,0,0,1-1.94-1,1.67,1.67,0,0,1-.28-1.28,2.25,2.25,0,0,1,.88-1.26l.18-.16a1.34,1.34,0,0,0,.36-1.12,2.63,2.63,0,0,0-1.11-1.88,7.58,7.58,0,0,0-4.32-.78l-.44.17L652,456.91a11.12,11.12,0,0,1-4.39.84l-.55-.05a3.76,3.76,0,0,0-.93,0c-.78.12-1.39.93-2,1.79l-.32.42a5.54,5.54,0,0,1-2.08,1.66c3.5,2.18,5.22,7.76,2.21,10.93,1.22,2.15,4.41,1.23,6.86.92,10.53-1.3,18.53,14.15,28.68,11.07,3-.89,5.14-3.22,6.8-5.89A10.6,10.6,0,0,1,682.33,475.3Z"/><path class="cls-1" d="M720.59,445.72c-8.56,1.43-14.68-7.59-21.66-12.75a34.46,34.46,0,0,0-3.31-2.12l-.14.4c.06.07-.07.5,0,.79a5.28,5.28,0,0,0,.33.73,3.86,3.86,0,0,1,.56,2.46,4,4,0,0,1-2.23,2.46c-.78.48-1.26.8-1.31,1.21a2.28,2.28,0,0,0,.28.92,6.38,6.38,0,0,1,.34.92,3.44,3.44,0,0,1-5.72,3.37,3.67,3.67,0,0,1-.7-.88,3.31,3.31,0,0,1-.95.31c-2,.37-4.4-.87-5.84-2-.41-.33-4-3.16-5.48-1.43a5.54,5.54,0,0,0-.82,2.16,9.6,9.6,0,0,1-.59,1.84,7.11,7.11,0,0,1,.13,8.1l-.37.52-8.66-2.12a5.3,5.3,0,0,1-1.7-.63,5,5,0,0,1-.84-.68,3,3,0,0,0-.69-.54,1,1,0,0,0-1.07.3.93.93,0,0,0,.08,1.1l.23.2a2.62,2.62,0,0,1,.78.95,1.71,1.71,0,0,1,.05,1.22,7.32,7.32,0,0,1,3.52,1.06,4.56,4.56,0,0,1,1.94,3.28,3.18,3.18,0,0,1-.95,2.65,2.75,2.75,0,0,1-.26.22l-.13.12a2.06,2.06,0,0,0,.53.17c.51.07,1,.11,1.54.15a11.65,11.65,0,0,1,4.14.88,5,5,0,0,1,2.57,3.16,3.74,3.74,0,0,1,.1.81,3.6,3.6,0,0,1,1.59.09,2.68,2.68,0,0,1,1.73,1.74,2,2,0,0,1-.32,1.89,3,3,0,0,1-1.84.93,2.46,2.46,0,0,0-.39.09,13.84,13.84,0,0,0,2.15.33,8,8,0,0,1,4.45,1.38,8.31,8.31,0,0,1,1.68,2.05c.16.24.31.48.48.72a8.65,8.65,0,0,0,3.29,2.73c.19-.36.38-.71.55-1.07,1.78-3.68,3.16-7.69,6-10.64s7.8-4.41,11-1.91A22.21,22.21,0,0,1,707,478.79a36.24,36.24,0,0,1,8-.81c-.36-6.88-.1-12.75-.46-19.63C714.33,453.19,715.45,446.27,720.59,445.72Z"/><path class="cls-1" d="M453.79,413.36l.28-.34a3.09,3.09,0,0,0,2.93.07,15.24,15.24,0,0,0,1.47-.7,13.31,13.31,0,0,1,2.31-1,13.11,13.11,0,0,1,5-.17c1,.1,1.94.2,2.9.36a11.43,11.43,0,0,1,2.42.67,44.41,44.41,0,0,0-8.61-11.39,5.07,5.07,0,0,1-1.59-2.25,4.66,4.66,0,0,1,.27-2.67,5.64,5.64,0,0,0,.28-1.17c.14-1.42-1.1-2.68-2.39-3.2a12.14,12.14,0,0,0-5-.45l-1.26.05.31-1.22a3.52,3.52,0,0,0-.93-3.29,8.23,8.23,0,0,0-6.84-2.33,27.32,27.32,0,0,0-5.65,1.69,30.16,30.16,0,0,1-5.74,1.71,12,12,0,0,1,3.7,3.08c.46.57.9,1.17,1.35,1.77,1.34,1.84,2.61,3.57,4.47,4.45l.8.34a4.93,4.93,0,0,1,2.95,2.2,4.78,4.78,0,0,1,.39,1.28,2.6,2.6,0,0,0,.3.93,2.55,2.55,0,0,0,.9.59l.51.26c2.73,1.53,3.59,4.86,4.07,7.91C453.52,411.48,453.65,412.42,453.79,413.36Z"/><path class="cls-1" d="M477.59,423.17l-6.4-6c0-.86.75-1.3,1.64-1.36-.08-.21-.19-.41-.28-.62l-.16.12c-.71-1-2-1.59-4-1.92-.93-.16-1.86-.25-2.79-.34a8.33,8.33,0,0,0-6.27,1c-.54.28-1.08.55-1.64.78a5.43,5.43,0,0,1-3.65.22c.68,5,1.21,10.07,1.56,15.08.89.55,2.41.1,3.61-.63l.63-.41c1.42-.91,3-1.93,4.91-1.68a6.84,6.84,0,0,1,2.14.74l4.11,2a41.45,41.45,0,0,0-2.86-6.16Z"/><path class="cls-1" d="M377.74,505.47l.37.06c4.19.66,8.44-.73,12.78-2.35,2.32-.86,4.67-1.87,5.62-3.86.82-1.7.46-3.82,0-6a16.29,16.29,0,0,0-2.56-6.43c-.81-.35-2.12.23-3.1,1-1.56,1.25-3.37,2.69-5.44,2l-.8-.25.17-.83c0-.19-.34-.56-.68-.88a4,4,0,0,1-1.29-1.85,3.53,3.53,0,0,1,0-1.24,2.48,2.48,0,0,0,0-.54c-.08-.68-.83-1-2.05-1.55a9.58,9.58,0,0,1-2.16-1.16,7.38,7.38,0,0,1-2-3,11,11,0,0,0-.83-1.61,4.56,4.56,0,0,0-3.43-1.85,4.65,4.65,0,0,0-3.68,1.27c-.1.1-.18.23-.27.34l-.16.55a1.33,1.33,0,0,1-.21-.09c-.18.27-.36.54-.54.83-.57.91-1.17,1.83-1.79,2.74l.46.69a.26.26,0,0,0-.09.2,1.2,1.2,0,0,0,.27.85,5,5,0,0,0,1.13.87c.32.21.64.42.94.66a10.17,10.17,0,0,1,2.88,4.88,138.52,138.52,0,0,1,4.55,16.35A8,8,0,0,1,377.74,505.47Z"/><path class="cls-1" d="M369.63,426.14a5.06,5.06,0,0,1,.91-1.36,9,9,0,0,1,2.52-1.68l.52-.28a17.64,17.64,0,0,0,8.89-12.36c.07-.41.13-.83.19-1.26.25-1.87.52-3.8,1.79-5.35a10,10,0,0,1,4.17-2.64,13.54,13.54,0,0,0,2.61-1.31,3.46,3.46,0,0,0,1.19-3.39.85.85,0,0,0-.83-.74v-.23c-1-.2-2-.44-2.92-.74-.67-.21-2.72-.85-3.21-2.63,0-.12,0-.23-.05-.34a1.1,1.1,0,0,0-.15-.16,4,4,0,0,0-2.85-.54,15.65,15.65,0,0,0-1.74.41,9.33,9.33,0,0,1-4.12.48,9.46,9.46,0,0,1-3.4-1.52c-.41-.26-.82-.51-1.24-.73-1.13-.59-2.68-.85-3.44,0a3.92,3.92,0,0,0-.37.51,2.87,2.87,0,0,1-3.28,1.52,4.05,4.05,0,0,0-.84,0c-.89.15-1.26,1.16-1.75,2.81s-1.06,3.49-2.81,4.2a5.23,5.23,0,0,1-1.82.31l-7.23.32a4.67,4.67,0,0,1-.4,2.54,6.21,6.21,0,0,1-4,3.4,8,8,0,0,1-1.92.25,15.16,15.16,0,0,1-6.24-1.66l-.77-.35c-2-.94-4.12-1.9-6.24-1.9v-.06a6.63,6.63,0,0,1-4.55,2,2.18,2.18,0,0,0,.16,2.09,7.7,7.7,0,0,0,2.57,2.18l1.15.72-1.09.82a9,9,0,0,0-3.32,8.23,4.72,4.72,0,0,1,2.9,1.18A10.48,10.48,0,0,1,331,422.3l2.71,5.59a3,3,0,0,0,3.5,2,15.66,15.66,0,0,1,1.71.21,12.63,12.63,0,0,1,3.15,1.25,13.05,13.05,0,0,0,2.38,1,3.54,3.54,0,0,0,2.81-.46,1.26,1.26,0,0,0,.58-1v-.49l.41-.27A28.39,28.39,0,0,1,369.63,426.14Z"/><path class="cls-1" d="M461.27,459.49l-.14.1L459,456.93a7.86,7.86,0,0,0-8.66-.28l-.56.38a7.51,7.51,0,0,1-1.82,1c-2.61.92-5.1-.81-7.1-2.21l-.29-.2c-1.65-1.15-3.86-1.88-5-1,.11,4.43-3.44,7.94-6.9,9.35a19.3,19.3,0,0,1-7.28,1.29c-1.59,0-3.16-.1-4.63-.23a141.2,141.2,0,0,1-20.44-3.26l-.94-.21.25-.93a7.76,7.76,0,0,0,.16-2.84,10.76,10.76,0,0,1-1.59,2c-.23.25-.47.5-.69.75s-1.37,1.73-.91,2.79a3.64,3.64,0,0,0,1.35,1.32,8.73,8.73,0,0,1,1.27,1c2.3,2.4,1.4,6,.36,8.91l-3.11,8.66a6.82,6.82,0,0,1,2.83,2.14,2.43,2.43,0,0,1,.32.24l-.07.07a18.65,18.65,0,0,1,2.85,7.09,19.27,19.27,0,0,1,.56,4h.47a.36.36,0,0,0,.19.33,2.31,2.31,0,0,0,1.86.13c.31-.11.62-.25.94-.39a5.29,5.29,0,0,1,3.63-.65,5.39,5.39,0,0,1,1.34.65,6,6,0,0,0,.61.35c1.54.72,3.43-.17,5.43-1.1,2.34-1.1,5-2.35,7.29-.64a7.17,7.17,0,0,1,.72.64,3.19,3.19,0,0,0,.79.63c.71.33,1.52-.14,2.76-.95a14.34,14.34,0,0,1,1.57-.93,10.32,10.32,0,0,1,4-.76l1.2-.09c1.3-.13,4.48-.7,6-3.21a12.2,12.2,0,0,0,.66-1.42,8.88,8.88,0,0,1,1.31-2.41,3.88,3.88,0,0,1,3.11-1.33,2.61,2.61,0,0,1,.63.13,4.15,4.15,0,0,1,1.29-1.49,8,8,0,0,1,6.27-1c.72.18,1.45.41,2.17.64,1.89.6,3.68,1.15,5.33.73-.43-.6-.86-1.19-1.25-1.82-3.79-6.08-4.9-14.42-.77-20.28C458.92,463.07,460.4,461.64,461.27,459.49Z"/><path class="cls-1" d="M394.23,396a5.36,5.36,0,0,1-1.92,5.44,15.54,15.54,0,0,1-3,1.5,8.39,8.39,0,0,0-3.45,2.1c-.94,1.14-1.15,2.73-1.39,4.42-.06.44-.12.88-.19,1.31a19.54,19.54,0,0,1-9.85,13.7l-.56.29a7.85,7.85,0,0,0-2,1.32c-2.34,2.43.07,6.79,1.71,9.17l8.06,11.67,6.28,1.21a19.51,19.51,0,0,1,2.86.7,10.69,10.69,0,0,1,6.74,11.4,141.46,141.46,0,0,0,19.29,3c3.51.3,7.56.5,11-.93,3.06-1.26,6-4.38,5.71-7.92l0-.4.26-.3c1.89-2.14,5.27-1.33,7.79.42l.3.21c1.81,1.27,3.68,2.58,5.39,2a5.93,5.93,0,0,0,1.37-.8l.62-.43a9.81,9.81,0,0,1,10.9.43l.15.15,1.53,1.86a25.62,25.62,0,0,0,.51-4.13q.44-7.92.85-15.86a4.39,4.39,0,0,1,1.78,5.93c4-.11,6.81-4.34,6.88-8.31a13.86,13.86,0,0,0-.54-3.9l-.44.91-4.81-2.3a5.79,5.79,0,0,0-1.59-.58c-1.21-.17-2.39.6-3.64,1.41l-.67.42a7.21,7.21,0,0,1-3.59,1.17,3.55,3.55,0,0,1-2.57-1l-.25-.25,0-.36c-.46-6.6-1.21-13.28-2.23-19.85-.43-2.74-1.11-5.43-3.13-6.56l-.43-.22a3.3,3.3,0,0,1-2.21-2.83,3.21,3.21,0,0,0-.23-.82,3.49,3.49,0,0,0-2-1.29c-.31-.13-.61-.25-.9-.39-2.28-1.07-3.76-3.09-5.19-5-.42-.58-.84-1.15-1.29-1.7a8.26,8.26,0,0,0-4.81-3.18l-.95,1.38-1.25-.87c0,.14-.07.27-.11.43a6,6,0,0,1-.36,1.18c-.77,1.68-2.6,2.32-4.28,2.72a96.75,96.75,0,0,1-23,2.74,56.22,56.22,0,0,1-7.24-.41Z"/><path class="cls-1" d="M367.32,520.85a6.5,6.5,0,0,1,5.56-2.29,8.83,8.83,0,0,1,2.38-6.9c.28-.29.6-.61.6-.75s-.52-.42-.83-.59a3.45,3.45,0,0,1-1.84-1.72,2.17,2.17,0,0,1,.14-1.74A2.78,2.78,0,0,1,374,506a136.52,136.52,0,0,0-4.56-16.46,8.65,8.65,0,0,0-2.28-4c-.25-.19-.52-.36-.79-.54a6.77,6.77,0,0,1-1.53-1.22,3,3,0,0,1-.59-1.09,8.85,8.85,0,0,1-4.37,3.19,7.81,7.81,0,0,1-.81,5.52l-.26-.15c2.79,8.84-2.25,18.46-1.34,27.76a2.63,2.63,0,0,0,.85,2,3.88,3.88,0,0,0,2.1.29c2.49.06,4.17,1.86,5.48,4.1A6.42,6.42,0,0,1,367.32,520.85Z"/><path class="cls-1" d="M458.93,485.44l.33,1c-2.3.76-4.57,0-6.76-.66-.69-.21-1.37-.43-2.05-.6a6.15,6.15,0,0,0-4.72.68,2.08,2.08,0,0,0-.93,1.58l-.11,1.49.26.48a6.22,6.22,0,0,1,.93,2.49A5.65,5.65,0,0,1,445,495l-2.66,4.88a3.14,3.14,0,0,0-.57,1.62c.07.71.81,1.22,1.92,1.92.34.21.66.41,1,.63a7.46,7.46,0,0,1,2.86,4.21l.07.31c.19.78.44,1.84.89,1.88l-.06.6a12.58,12.58,0,0,0,1.69-2.49,22,22,0,0,1,22.67-11C467.75,494,462.67,490.24,458.93,485.44Z"/><path class="cls-1" d="M445.72,509l-.07-.31a5.55,5.55,0,0,0-2.13-3.13c-.27-.19-.56-.37-.86-.56-1.17-.73-2.64-1.65-2.79-3.34a4.73,4.73,0,0,1,.78-2.69l2.66-4.88a4,4,0,0,0,.7-2,4.5,4.5,0,0,0-.7-1.72,5.08,5.08,0,0,1-.87-2.73,2,2,0,0,0-1.41.65,7.28,7.28,0,0,0-1,1.92,13.1,13.1,0,0,1-.78,1.66c-1.35,2.29-4,3.79-7.39,4.12-.42.05-.85.07-1.27.1a8.86,8.86,0,0,0-3.3.59,11.94,11.94,0,0,0-1.35.8c-1.27.83-2.86,1.86-4.56,1.09a4.77,4.77,0,0,1-1.32-1,4.79,4.79,0,0,0-.53-.48c-1.3-1-2.9-.33-5.38.83a12.6,12.6,0,0,1-4.95,1.55,4.91,4.91,0,0,1-2.07-.44,9.05,9.05,0,0,1-.8-.45,3.76,3.76,0,0,0-.86-.45,3.82,3.82,0,0,0-2.36.56c-.35.16-.71.32-1.06.44a4.16,4.16,0,0,1-3.38-.26,5.81,5.81,0,0,1-.45,1.31c-1.25,2.62-4.09,3.86-6.66,4.81-4.58,1.71-9.08,3.17-13.73,2.44l-.39-.06a4.35,4.35,0,0,0-1.81-.08,1.06,1.06,0,0,0-.61.48.33.33,0,0,0-.05.24c.09.24.55.49,1,.71.77.41,1.83,1,1.82,2.24a2.87,2.87,0,0,1-1,2,7,7,0,0,0-1.74,6.65l.49,1.73-1.71-.6a4.51,4.51,0,0,0-5.39,6.54l-1.17.69.93,2.11c1.65,3.77,6.28,7.63,9.34,4.88a5.53,5.53,0,0,1-4.24,4.41c5.16,2.34,11.15.94,16.81,1.19s12.32,3.75,12,9.41a42.39,42.39,0,0,0-22.59-.88,17.34,17.34,0,0,1,5.85,13.56c-.08,2-.5,4,0,5.92s2.26,3.76,4.21,3.36c3.22-.67,2.67-5.44,1.31-8.43a9.41,9.41,0,0,1,5,8.32q1.22-1.87,2.42-3.75a13.77,13.77,0,0,0,8.06,3.63,63.5,63.5,0,0,1-9.4-17.19,24.75,24.75,0,0,1,11.34,5,4.36,4.36,0,1,1,6.09-6.24c3-3.15-.18-8.53-4.13-10.4s-8.72-2.29-11.84-5.35q-.82-5.4-1.66-10.81a3.07,3.07,0,0,1,4.16,1.46c1.51-.43,1.59-2.7.6-3.91s-2.55-1.79-3.81-2.72c-3.87-2.87-3.8-9.61.12-12.41,2.55.21,3.25,3.54,3.68,6.07s2.72,5.61,4.9,4.24a6.35,6.35,0,0,0-1.15-4.13l6,4.07c-.59-1.4-1.17-2.81-1.76-4.21l8.07,2a13.59,13.59,0,0,1-6.84-8.67,38.08,38.08,0,0,1,19-4.92c5.29.05,11.18,1.65,13.8,6.25a5.11,5.11,0,0,0,1.79,2.3,2.11,2.11,0,0,0,2.13-.15C446.3,511.32,446,510,445.72,509Z"/><path class="cls-1" d="M357.9,469.4c.19.84.39,1.7.91,2a2.42,2.42,0,0,0,.83.19,4.28,4.28,0,0,1,2.68,1.22c.54.44.88.7,1.2.67a2.86,2.86,0,0,0,.42-.12,3.38,3.38,0,0,1,.95-.24,3.29,3.29,0,0,1,2.67,1.5l.15.17a6.47,6.47,0,0,1,4.71-1.45,6.39,6.39,0,0,1,4.83,2.67,12.21,12.21,0,0,1,1,1.89,5.89,5.89,0,0,0,1.45,2.29,7.66,7.66,0,0,0,1.74.9c1.31.56,3,1.26,3.18,3.05a4.74,4.74,0,0,1,0,.93,2.62,2.62,0,0,0,0,.62,2.76,2.76,0,0,0,.78,1,3.93,3.93,0,0,1,1.17,1.59,6.48,6.48,0,0,0,3-1.69,8.4,8.4,0,0,1,2.36-1.34,4.11,4.11,0,0,0-.92-.29l-1.06-.22,3.82-10.61c.86-2.38,1.64-5.33,0-7a8.1,8.1,0,0,0-1-.82,5.21,5.21,0,0,1-2-2.1c-.61-1.4-.17-3.13,1.21-4.74.24-.28.49-.55.74-.82a6.87,6.87,0,0,0,1.57-2.16,1.93,1.93,0,0,0-.16-1.61.76.76,0,0,0-.55-.39l.12-1.23a8,8,0,0,0-3.55-2.6,18.47,18.47,0,0,0-2.59-.63l-7-1.35-8.5-12.31c-2.23-3.22-3.2-6.08-2.95-8.39a26.59,26.59,0,0,0-15.82,1.65l.1,0c-1.17,3.62-2.07,6.86-1.1,9.85a16.89,16.89,0,0,0,1,2.26,9.36,9.36,0,0,1,.89,8.35,10.72,10.72,0,0,0-.48,3.77,11.07,11.07,0,0,0,1.71,4c1.07,1.84,2.19,3.75,1.87,6a6.78,6.78,0,0,1-1.08,2.67A4.21,4.21,0,0,1,357.8,469Z"/><path class="cls-1" d="M161.81,466.22c-.05-1.29-1.93-2-3.24-2.06-.41,0-.83,0-1.24,0a8.17,8.17,0,0,1-4.66-1l-.37-.25-.18-2.64c-.61-.27-1.7.19-2.53.85-1.28,1-3,2.4-4.93,1.63l-.88-.35.37-.88a6.47,6.47,0,0,0,.07-4.76c-4.87-.06-10.31-.2-15.08-2.47A19.11,19.11,0,0,1,121,446.8a2.92,2.92,0,0,0-.79-1,2.48,2.48,0,0,0-1-.16l-5.56-.14v-.91c0-4.3-4.68-7.13-8.74-9.11l.56-1.13a27.45,27.45,0,0,1-6.35-1.69,55.12,55.12,0,0,1-9.87-4.93,8.81,8.81,0,0,0-3.7-1.65c-2.9-.27-5.82,2.55-8.45,1.3-2.35-1.13-2.37-4.55-4.17-6.44-2.34-2.45-6.35-1.33-9.7-.76s-7.17.56-6.76-2.81c-.68,1-2.27.67-3.07-.19A11.1,11.1,0,0,1,51.8,414a6.41,6.41,0,0,0-5.69-3.91c-2.44.08-4.71,2.48-4.17,4.86a18.12,18.12,0,0,0-13.14-.45c1.22,2.42,2.47,5,2.43,7.66s-1.84,5.6-4.54,5.88c0,7.75-3.37,15.05-6.71,22-2.49,5.22-5.05,10.54-9,14.72-3.09,3.23-7.13,5.94-8.5,10.2,2.46,1,5.22,2.65,5.39,5.31a7.55,7.55,0,0,1-1,3.66l-6,12.65c-.6,1.26-1.17,2.83-.35,3.95a3.72,3.72,0,0,0,1.07.9c3.77,2.46,7.66,5,12.06,5.9.78.16,1.56.27,2.35.36a4.81,4.81,0,0,1-1.38-2.68,6.62,6.62,0,0,1,1.77-5.64c2.15-2.13,5.18-2.74,8.2-3a3.2,3.2,0,0,0-.3-2,3.12,3.12,0,0,0-1.85-1.69l-2-.6,1.76-1.09a14.08,14.08,0,0,0,5.9-15.4l-.44-1.54,5.32,1.24a3.7,3.7,0,0,0,.45-2.06,5.56,5.56,0,0,1,1-3.43,5.1,5.1,0,0,1,1.72-1.18l.58-.3c2.54-1.47,3-4.87,3.33-8.84.44-5.44,2.37-8.76,5.58-9.61a9.47,9.47,0,0,1,3.43-.13c.52,0,1.06.07,1.57.07,1.27,0,2.67-.56,2.9-1.57a3.88,3.88,0,0,0-.87-2.54c-.94-1.52-2.1-3.42-3.83-4.2a9.94,9.94,0,0,0-2.43-.6l-1-.16c-6.94-1.34-12-6.77-17-12.69l1.44-1.2c4.74,5.65,9.53,10.82,15.86,12.05l.91.15a11.71,11.71,0,0,1,2.89.74c2.26,1,3.6,3.19,4.67,4.93a5.31,5.31,0,0,1,1.09,3.93c-.46,2.06-2.69,3-4.69,3a17.39,17.39,0,0,1-1.75-.09,8.38,8.38,0,0,0-2.8.08c-3.16.84-4,5.34-4.19,8-.28,3.47-.67,8.23-4.27,10.31-.22.13-.45.24-.68.36a3.61,3.61,0,0,0-1.13.72,4.11,4.11,0,0,0-.54,2.32c-.08,1.32-.18,3-1.64,3.78l-.32.17-3.09-.71a16.19,16.19,0,0,1-5.78,15.1,5.15,5.15,0,0,1,1.49,1.88,5,5,0,0,1,.2,4l-.22.54-.58,0c-2.88.21-5.8.67-7.67,2.53a4.7,4.7,0,0,0-1.24,4,2.71,2.71,0,0,0,1.44,2.1l-.5,1a37.88,37.88,0,0,1,5.31.73c3,.73,6,2.64,6.65,5.62.42,1.83-.09,3.73-.18,5.61a12.44,12.44,0,0,0,5,10.44l12-4.73,3.08,3.75a4.14,4.14,0,0,0,1.87-5.72c.93-1.71,3.6-1.43,5.12-.2s2.44,3.07,4,4.28a13.28,13.28,0,0,0,5.26,2.07l16.52,3.84a8.44,8.44,0,0,1,12.37-9.72,6.88,6.88,0,0,0,2.76,1.31c2,.17,3.36-2.12,3.76-4.12s.53-4.31,2.1-5.61c2.92-2.4,8.63.41,10.48-2.89,1.33-2.39-1.12-5-2-7.64-1.5-4.59,2.29-9.25,6.41-11.77s9-4.16,12-8c1.27-1.62,2.15-3.61,3.82-4.82a10.34,10.34,0,0,1,4.08-1.52c8.42-1.71,18.67-2.13,23-9.56a16.66,16.66,0,0,0,1.33-3.06Z"/><path class="cls-1" d="M343.73,517.42c-1.15-3.48-4.63-5.54-7.84-7.3l-22.75-12.46a4.53,4.53,0,0,1,4.53-3.12c-.38-2.16-2.83-3.32-5-3.42s-4.39.51-6.56.25a12,12,0,0,1-5.09-2.08,22.06,22.06,0,0,1-9.51-14.78c-.47-3-.36-6.14-1.82-8.77-3.32-5.92-13.32-6.72-14.65-13.39-.52-2.61.6-5.24,1.14-7.85s.21-5.87-2.14-7.13a90.75,90.75,0,0,0,17.5-7.05c1.13-2.6.05-5.9-1.34-9.12a3,3,0,0,0-.58-1c-.53-.48-1.33-.25-2.6.17a7.2,7.2,0,0,1-3.3.52,6.22,6.22,0,0,1-2.43-1.13L273,414.22a5.57,5.57,0,0,0-2.88-1.26,6.17,6.17,0,0,0-2.76,1c-1.44.75-3.07,1.61-4.8.79a6.67,6.67,0,0,1-1.24-.82c-.57-.43-1-.72-1.2-.62s-.23.64-.22,1.4a3.66,3.66,0,0,1-.88,3c-1.24,1.09-2.76.36-3.87-.18a6.26,6.26,0,0,0-1.4-.55,6.82,6.82,0,0,1-2.86,6.22l-1,.67-.44-1.09a12.14,12.14,0,0,0-3.26-4.6l-2.49,4.72-.79-1.76c-.52-1.17-1.68-2.33-2.44-2.42a.44.44,0,0,0-.45.21,2.45,2.45,0,0,0-.11,1.56,4.07,4.07,0,0,1-.34,2.74,2.42,2.42,0,0,1-2.33,1.2,4.07,4.07,0,0,1-3.35-2.13,9.82,9.82,0,0,1-.81-3.1,12.34,12.34,0,0,0-.38-1.94,2.91,2.91,0,0,0-1.57-1.73,1.27,1.27,0,0,0-.34-.08l.61,8.89L229.82,423a2.09,2.09,0,0,0-2.61.12l-.67.65-.65-.67a7.79,7.79,0,0,0-9.26-1.14,59,59,0,0,1-2.32,11.45l-.22.72-4.53-.36c0,.67.65,1.41,2,2.66s3.08,2.92,2.91,5a5.73,5.73,0,0,1-.91,2.37,6.8,6.8,0,0,0-.56,1.11,2.77,2.77,0,0,0,.16,2.3c1,2,4.18,3.59,6.55,4.29l-.53,1.8c-1.39-.41-6-2-7.69-5.24a4.64,4.64,0,0,1-.26-3.77,7.94,7.94,0,0,1,.71-1.43,4.11,4.11,0,0,0,.66-1.58c.1-1.19-1.14-2.36-2.33-3.49-1.54-1.46-3.46-3.28-2.11-5.5l.3-.49,4.32.34A57.28,57.28,0,0,0,215,413.35l-7.33,3.79-.37-1c-1-2.72,1.63-5.29,2.51-6.13l10.09-9.71,4.9-.29A29.21,29.21,0,0,1,235,377.59a1.35,1.35,0,0,0-.4-.71,4.73,4.73,0,0,0-3.43-1L230,376c-2,.22-4.19.46-5.88-1-1.32-1.11-1.68-2.69-2-4.22a7.51,7.51,0,0,0-1.06-2.9c-1.17-1.56-3.27-1.65-5.7-1.75a17.32,17.32,0,0,1-4.55-.59c-3-1-6-4-7.39-6.39a10.5,10.5,0,0,1-1-3.23c-.29-1.49-.61-3.18-1.48-3.6a3.68,3.68,0,0,0-1.89,0l-.43.06a12,12,0,0,1-4.8-.41,3,3,0,0,1-1.42-.78,3.29,3.29,0,0,1-.73-2l-.33-3c0-.22-.08-.75-.24-.88a2.13,2.13,0,0,0-.4-.15l-.34-.11c-1.64-.58-2.48-2.1-3.2-3.6-.33-.69-.64-1.46-1-2.25A18.28,18.28,0,0,0,184,334.8l.42-.34a12.88,12.88,0,0,0-4.55,1.87c-4.88,3.26-8.54,8.95-12.65,13.13a23.06,23.06,0,0,1-4.18,3.6c-6.35,4-15.66.91-19.26-5.67a4.17,4.17,0,0,0-.89-1.26c-1.15-.95-3-.09-3.67,1.26a8.8,8.8,0,0,0-.37,4.4,5.72,5.72,0,0,1-1,4.24c-1.51,1.67-4.2,1.23-6.38.65-9.8-2.61-19.81-5.5-30.07-4.53l5.62,4.33-5.94,6.19a44.61,44.61,0,0,1,17.83,8.9c2.07,1.71,4.17,4.2,3.41,6.79,1.94,0,3.29,2.17,3.12,4.1s-1.37,3.59-2.52,5.14a11.42,11.42,0,0,0,10.52,5.7,65.41,65.41,0,0,0-2,21.49l-2.75-6c.56,6.8-4.16,12.77-8.6,17.95-2.42,2.82-5,5.75-8.49,7a12.17,12.17,0,0,1-4.59.68c3.91,2.06,7.9,4.9,8.42,9.21l3.8.1a4,4,0,0,1,1.89.39,4,4,0,0,1,1.43,1.62,17.31,17.31,0,0,0,7.38,6.77c4.6,2.2,10.07,2.25,14.9,2.3h.57l.26.51a8.33,8.33,0,0,1,.61,5.6,7.47,7.47,0,0,0,2.14-1.36c1.64-1.3,3.91-2,5.29-.5l.22.24.17,2.44a7.76,7.76,0,0,0,3.25.48l1.34,0a6.22,6.22,0,0,1,4.06,1.73,29.58,29.58,0,0,1,1.64-4.63c2.75-5.59,9.32-8.83,15.52-8.24s11.81,4.66,14.91,10.06l.07,0a3.54,3.54,0,0,0,.12,1.3c.34.93,1.42,1.31,2.37,1.58a13.25,13.25,0,0,0,5.09.73,4.5,4.5,0,0,0,3.91-2.91c-.9-2,3.19-4.41,5.35-4.35s4.8.48,6.07-1.26c.51-.69.66-1.59,1.17-2.27,1.13-1.51,3.37-1.33,5.24-1.49s4.14-1.67,3.42-3.41c3.79-1.72,8-1.91,10.65,1.27a8,8,0,0,1,7.91-5.82,29.58,29.58,0,0,0,1.34,14.17c2.82,8.45,8.56,15.57,14.18,22.49,7,8.59,14.31,17.46,24.33,22.18,5.92,2.78,13.84,5.65,13.83,12.19a4.34,4.34,0,0,0,.32,2.41c.8,1.2,2.6.86,4,1,2.38.19,4.33,2,5.71,3.95a21.27,21.27,0,0,1-1.87,26.17l8.18,1.71c-1.78-7.42,12.16-11.7,10.3-19.1-.83-3.3-4.62-5.12-5.7-8.35-1.46-4.4,3.52-9,8.12-8.34s8,4.85,9.28,9.3C341.67,525.6,344.87,520.9,343.73,517.42Z"/><path class="cls-1" d="M256.61,415.57c.05-.12.12-.25.18-.38a1.64,1.64,0,0,0,.2-.45c-.07,0-.51-.14-.75-.2l-.23-.06c-2.86-.75-4.19-3.54-5.37-6-.18-.37-.35-.73-.53-1.08a20.2,20.2,0,0,0-4.33-5.76,3.8,3.8,0,0,0-1.48-1,3.53,3.53,0,0,0-.72-.08,6.15,6.15,0,0,1-1.12-.15,6.06,6.06,0,0,1-1.88-1,2.68,2.68,0,0,0-1.49-.73,3,3,0,0,0-1.06.36,3.78,3.78,0,0,1-2.18.52,3.84,3.84,0,0,1-1.62-.72l-.17-.1a9.16,9.16,0,0,0-7.29-1.09,24.24,24.24,0,0,0,0,3.19l.05.93-6.06.36-9.59,9.23a6.94,6.94,0,0,0-2.1,3l7.67-4,.1,1.41a58,58,0,0,1,0,8,9.69,9.69,0,0,1,9.81,1.47,4,4,0,0,1,2.73-.44l-.45-6.54.48-.3a2.77,2.77,0,0,1,2.47-.21,4.76,4.76,0,0,1,2.7,2.91,14.27,14.27,0,0,1,.46,2.25,8.1,8.1,0,0,0,.62,2.52,2.25,2.25,0,0,0,1.75,1.11.63.63,0,0,0,.66-.29,2.83,2.83,0,0,0,.08-1.57,3.82,3.82,0,0,1,.49-2.92,2.34,2.34,0,0,1,2.16-.92,5,5,0,0,1,3,2l1.86-3.53.87.63a14.15,14.15,0,0,1,4.21,4.91,5.07,5.07,0,0,0,1.09-4.39l-.16-.63.53-.36c1.28-.89,2.68-.21,3.81.33l.46.22A2.21,2.21,0,0,1,256.61,415.57Z"/><path class="cls-1" d="M222.54,366.77a9.14,9.14,0,0,1,1.39,3.61,5.67,5.67,0,0,0,1.4,3.2c1.08.91,2.73.73,4.48.54L231,374a6.7,6.7,0,0,1,4.89,1.55,3.18,3.18,0,0,1,1,2.54l0,.4-.31.25A27.25,27.25,0,0,0,227,395.68a11.08,11.08,0,0,1,8.06,1.5l.17.11a2.27,2.27,0,0,0,.85.43,2.48,2.48,0,0,0,1.12-.35,4.52,4.52,0,0,1,1.82-.55,4.39,4.39,0,0,1,2.64,1.09,4.29,4.29,0,0,0,1.27.73,4.66,4.66,0,0,0,.75.09,6,6,0,0,1,1,.13,5.37,5.37,0,0,1,2.31,1.41c.32.29.62.61.92.93l20.13.68a38.79,38.79,0,0,0,6.19-.12c1-.13,2.06-.34,3.1-.54,2.88-.58,5.84-1.18,8.6-.24a12.9,12.9,0,0,0-.67-5.71l-.32-.89.89-.31a4.39,4.39,0,0,0,2.81-3.61l.08-.83,7.31-.22A64.55,64.55,0,0,1,284.78,371c-1.24-3.07-2.25-6.27-3.23-9.36-.38-1.21-.77-2.42-1.16-3.63l-.58-1.76,1.76.58a18.22,18.22,0,0,0,9.74.44,38.36,38.36,0,0,0,4.83-1.58l12.64-4.78a43.56,43.56,0,0,0-1.5-20.53c-.22-.68-.46-1.36-.69-2a31.7,31.7,0,0,1-1.72-6.25,16.59,16.59,0,0,1,2.33-10.74,8.93,8.93,0,0,1-2.12-4.67l-4.81-.17c.36-3.5-4.06-5.59-7.56-5.22s-6.9,2.05-10.37,1.5c-5.76-.92-10.26-7.75-15.89-6.22-.71-3.9-1.43-7.88-.84-11.79s2.75-7.83,6.35-9.47c2.33-1.06,5.55-1.57,6.12-4.07.79-3.5-4.73-7.51-2-9.82a4.11,4.11,0,0,0-3.78-1l-1.52,3.45a26.09,26.09,0,0,0-15.08-1.3q.72,11.52,1.45,23.05c.39,6.15.9,12.65,4.44,17.69a15,15,0,0,0-5.52,8.39,29.5,29.5,0,0,0-15.62-7.51c-.33,1.69-.65,3.39-1,5.08l.94.23c-.09.36.28.77.91,1.4a4.79,4.79,0,0,1,1.56,2.38,4.26,4.26,0,0,1,0,1.53l-1.7,10.64c-.26,1.61-1,3.64-2.46,4.52a2.66,2.66,0,0,1-2.28.27,4.29,4.29,0,0,1-.86-.4,1.57,1.57,0,0,0-.62-.27c-.24,0-.47.43-.78,1.08a5.55,5.55,0,0,1-1.15,1.74,4.64,4.64,0,0,1-3.6.79c-1.12-.07-1.82-.08-2.22.33a3,3,0,0,0-.48,1.07,5.75,5.75,0,0,1-.5,1.24,6.32,6.32,0,0,1-3.05,2.33,10,10,0,0,0-1.43.77c.28.49.53,1,.77,1.45l-1.59.79a.92.92,0,0,1,0,.16,27.16,27.16,0,0,1-1.84,12.8c-.25.63-.54,1.27-.82,1.91-1.23,2.8-2.48,5.68-1.76,8.24C218.79,364.46,221.06,364.8,222.54,366.77Z"/><path class="cls-1" d="M120.81,269.08a1.82,1.82,0,0,1-1.46-.7,3.14,3.14,0,0,1-.45-2.87,9,9,0,0,1,.34-.86,2.62,2.62,0,0,0,.37-1.54c-.14-.48-.82-.74-1.42-.74a6.36,6.36,0,0,0-2,.47l-.63.21a14.3,14.3,0,0,1-6.72.47,3.38,3.38,0,0,1-1.6-.64,6.21,6.21,0,0,1-1.56-3.17,8.49,8.49,0,0,0-.63-1.75,1.1,1.1,0,0,0-.35-.43l-1.25-1.37a1.77,1.77,0,0,1,2.11-.29,2.9,2.9,0,0,1,1.11,1.13,9.66,9.66,0,0,1,.81,2.2,5.79,5.79,0,0,0,.94,2.23,1.79,1.79,0,0,0,.74.24,12.39,12.39,0,0,0,5.83-.4l.58-.2a8,8,0,0,1,2.53-.58,3.27,3.27,0,0,1,3.26,2.09,4.11,4.11,0,0,1-.45,2.81c-.1.24-.21.47-.29.71a1.28,1.28,0,0,0,.16,1.12l.2,1.85Z"/><path class="cls-1" d="M105.89,256.79l-1.17-1.46a3.71,3.71,0,0,1,2.72-.58,4.17,4.17,0,0,0,1.31-.06,3.73,3.73,0,0,0,1-.6,18.62,18.62,0,0,0,3-2.68,3.27,3.27,0,0,1,.8-.77,3.18,3.18,0,0,1,.89-.33l2-.47.43,1.82-2,.48a1.41,1.41,0,0,0-.34.1,1.18,1.18,0,0,0-.28.3,20.35,20.35,0,0,1-3.33,3,5.12,5.12,0,0,1-1.51.9,5.55,5.55,0,0,1-2,.15A2.26,2.26,0,0,0,105.89,256.79Z"/><path class="cls-1" d="M436,535.32l-1.91.35a5,5,0,0,0,3.77,3.86,5,5,0,0,0-.4,3.83c.86,2.34,4,3.11,6.35,2.16L441.54,547c1.83,1,4.28-.56,6.19.31,1.59.73,2,2.78,3.39,3.9a3.72,3.72,0,0,0,5.59-1.46,6.75,6.75,0,0,1,.76-2c1.14-1.41,3.48-.28,4.51,1.21s1.83,3.43,3.58,3.9a5.53,5.53,0,0,0,3.79-.84l7.78-3.83a6.54,6.54,0,0,1,2.59-.85,6.4,6.4,0,0,1,2,.35l5.45,1.56c4.66-1.92,9.95-.69,15-1A23.57,23.57,0,0,0,512.56,545a8.64,8.64,0,0,1,2.22-1.09,8.08,8.08,0,0,1,3,.06,37.29,37.29,0,0,0,13.52-.65,3.46,3.46,0,0,0,2.25-1.23c.71-1.12,0-2.66.47-3.91.25-.66.8-1.17,1.08-1.83,1.19-2.85-3.22-6.7-.85-8.68l2.14-.8c.43-1.36-.86-2.66-2.14-3.31s-2.79-1.16-3.44-2.44-.17-2.79-.4-4.19c-.46-2.92-3.86-4.53-6.81-4.3s-5.6,1.73-8.36,2.79a24.71,24.71,0,0,1-13.68,1.3,43.19,43.19,0,0,1-6.17-1.92l-9.92-3.64c-3.68-1.35-7.51-2.72-11.41-2.38-6.54.58-12,5.85-18.58,6.15a4.35,4.35,0,0,0-2.51.55c-1,.78-1,2.39-1.91,3.24-4.7,4.18-12.95.26-17.86,3.35-1.9,1.2-2.75,3-1.44,5.2,1.15,1.95,2.48,1.1,3.58,2.53A22.85,22.85,0,0,1,436,535.32Z"/><path class="cls-1" d="M488.77,552.76c-.59.41-1.47.28-2,.8a1.92,1.92,0,0,0-.38,1.16q-.33,2.85-.65,5.71c-.14,1.2,0,2.77,1.1,3.14.41.13.91.06,1.24.34.67.58-.09,1.61-.74,2.21a9.93,9.93,0,0,0-3,5.46,6.36,6.36,0,0,0,1,5.07,3.74,3.74,0,0,0,4.76,1c1.29-.85,1.93-2.7,3.46-3a13.19,13.19,0,0,1,2.33.17,5.74,5.74,0,0,0,2.16-.61c6.82-3,14.2-6.44,17.37-13.17,1.39-3,1.9-6.47,4.17-8.84.86-.9,1.94-1.58,2.77-2.52a3.51,3.51,0,0,0,1-3.42c-4.38-1.79-9.12,1-13.63,2.41a38.51,38.51,0,0,1-13.39,1.36c-1.24,0-4.34-.93-5.42-.48C489.37,550.2,490,551.93,488.77,552.76Z"/><path class="cls-1" d="M138.3,216.07a2.39,2.39,0,0,0,.36,1.43l2.5,5.14a7.15,7.15,0,0,0-.31-4.2,4.76,4.76,0,0,0-1-2.15,1.65,1.65,0,0,0-2.17-.26Z"/><circle class="cls-2" cx="228.22" cy="510.22" r="3.21"/><path class="cls-3" d="M254.08,235.26a.2.2,0,0,1-.19-.12.21.21,0,0,1,.1-.29,26.06,26.06,0,1,0-22.8-.08.22.22,0,0,1,.1.29.21.21,0,0,1-.29.09,26.48,26.48,0,1,1,23.17.09Z"/><path class="cls-3" d="M241.68,192.66a17.82,17.82,0,0,0-10.38,31.51A28.31,28.31,0,0,1,241.68,246V358.23a6,6,0,1,0,2,0V246a28.61,28.61,0,0,1,10.46-21.86,17.82,17.82,0,0,0-12.45-31.44Z"/><ellipse class="cls-4" cx="249.45" cy="204.26" rx="6.8" ry="12.35" transform="translate(-71.37 236.21) rotate(-45)"/><circle class="cls-2" cx="242.67" cy="210.07" r="10.26"/><circle class="cls-1" cx="242.67" cy="364.13" r="3.1"/><circle class="cls-2" cx="382.62" cy="352.68" r="3.21"/><rect class="cls-3" x="156" y="152.12" width="168.96" height="30.8" rx="13.71"/><path class="cls-5" d="M166.56,161h7.95v2H169v2.79h5.19v2H169v4.56h-2.41Z"/><path class="cls-5" d="M175.83,166.15c0-.84,0-1.6,0-2.31h2.32c0,.19.06,1,.06,1.5a2.74,2.74,0,0,1,2.75-1.7v2.26c-1.72-.05-2.75.41-2.75,2.76v3.72h-2.36Z"/><path class="cls-5" d="M189.14,170.17a18.71,18.71,0,0,0,.12,2.21H187a3.62,3.62,0,0,1-.11-.83,2.53,2.53,0,0,1-2.41,1,2.64,2.64,0,0,1-2.93-2.68c0-2,1.57-2.85,4.07-2.85h1.22v-.52c0-.6-.22-1.2-1.31-1.2s-1.22.42-1.33,1h-2.25c.13-1.52,1.07-2.75,3.67-2.73,2.28,0,3.53.91,3.53,2.94Zm-2.31-1.68h-1c-1.43,0-2,.44-2,1.26a1.1,1.1,0,0,0,1.23,1.14c1.5,0,1.68-1,1.68-2.17Z"/><path class="cls-5" d="M191.3,166c0-.73,0-1.52,0-2.15h2.29a8.89,8.89,0,0,1,.09,1.08,2.62,2.62,0,0,1,2.48-1.28c1.72,0,2.83,1.16,2.83,3.31v5.43h-2.36v-5.17c0-1-.32-1.66-1.37-1.66s-1.58.56-1.58,2.07v4.76H191.3Z"/><path class="cls-5" d="M203.44,167.44c.63-.85,1.76-2.18,2.94-3.6h2.71l-3,3.22,3.26,5.32h-2.68l-2.16-3.8-1.09,1.06v2.74h-2.37v-12h2.37Z"/><path class="cls-5" d="M210.85,172.38v-6.77H209.6v-1.77h1.25v-.75c0-1.77.87-2.93,2.72-2.93a4.55,4.55,0,0,1,1.1.11v1.86a3.37,3.37,0,0,0-.5,0c-.69,0-1,.26-1,1.17v.58h1.5v1.77h-1.5v6.77Z"/><path class="cls-5" d="M223.37,169.9c0,.82,0,1.72,0,2.48h-2.32c0-.23,0-.69-.06-1a2.45,2.45,0,0,1-2.35,1.18c-1.75,0-2.86-1.06-2.86-3.18v-5.56h2.37v5.09c0,.94.29,1.72,1.31,1.72s1.53-.57,1.53-2.27v-4.54h2.36Z"/><path class="cls-5" d="M225.51,166.15c0-.84,0-1.6,0-2.31h2.32c0,.19.06,1,.06,1.5a2.74,2.74,0,0,1,2.74-1.7v2.26c-1.71-.05-2.74.41-2.74,2.76v3.72h-2.36Z"/><path class="cls-5" d="M231.51,163.84h1.32v-2.32h2.36v2.32h1.68v1.77h-1.68v4.22c0,.65.2.9.91.9a5.34,5.34,0,0,0,.54,0v1.62a5.39,5.39,0,0,1-1.59.17c-1.67,0-2.22-.89-2.22-2.39v-4.5h-1.32Z"/><path class="cls-5" d="M237.66,174.29a14,14,0,0,0,1.21-4.81h2.42a9.31,9.31,0,0,1-1.8,4.81Z"/><path class="cls-5" d="M257.28,172.38h-1.8a5.82,5.82,0,0,1-.19-1.12,3.9,3.9,0,0,1-3.33,1.31c-3.3,0-5.14-2.49-5.14-5.74,0-3.42,2-6,5.57-6,2.93,0,4.66,1.66,4.93,3.6h-2.46a2.31,2.31,0,0,0-2.5-1.67c-2.34,0-3,2-3,4s.76,3.88,3,3.88a2.25,2.25,0,0,0,2.49-2.48V168h-2.5v-2h4.91Z"/><path class="cls-5" d="M261.38,168.62c0,1.06.54,2.11,1.72,2.11a1.36,1.36,0,0,0,1.49-.91H267a3.76,3.76,0,0,1-3.93,2.76c-2.81,0-4-2.11-4-4.35,0-2.68,1.37-4.59,4.12-4.59,2.93,0,3.93,2.12,3.93,4.25a5.62,5.62,0,0,1,0,.73Zm3.3-1.46c0-1-.41-1.83-1.56-1.83s-1.59.78-1.69,1.83Z"/><path class="cls-5" d="M268.71,166.15c0-.84,0-1.6,0-2.31H271c0,.19.06,1,.06,1.5a2.73,2.73,0,0,1,2.74-1.7v2.26c-1.72-.05-2.74.41-2.74,2.76v3.72h-2.37Z"/><path class="cls-5" d="M275.08,166c0-.74,0-1.47,0-2.2h2.26c0,.2.08.68.09,1a2.69,2.69,0,0,1,2.38-1.21,2.24,2.24,0,0,1,2.2,1.3,3,3,0,0,1,2.63-1.3c1.49,0,2.71.91,2.71,3.14v5.6H285v-5.32c0-.77-.27-1.52-1.24-1.52s-1.4.65-1.4,2v4.88h-2.32v-5.23c0-.88-.22-1.6-1.23-1.6s-1.42.59-1.42,2.06v4.77h-2.34Z"/><path class="cls-5" d="M296.45,170.17a18.71,18.71,0,0,0,.12,2.21h-2.26a3.14,3.14,0,0,1-.12-.83,2.51,2.51,0,0,1-2.4,1,2.64,2.64,0,0,1-2.93-2.68c0-2,1.56-2.85,4.07-2.85h1.21v-.52c0-.6-.21-1.2-1.31-1.2s-1.22.42-1.33,1h-2.25c.13-1.52,1.07-2.75,3.67-2.73,2.29,0,3.53.91,3.53,2.94Zm-2.3-1.68h-1c-1.42,0-1.95.44-1.95,1.26a1.1,1.1,0,0,0,1.23,1.14c1.5,0,1.69-1,1.69-2.17Z"/><path class="cls-5" d="M298.61,166c0-.73,0-1.52,0-2.15h2.29c.05.22.08.81.1,1.08a2.61,2.61,0,0,1,2.47-1.28c1.72,0,2.84,1.16,2.84,3.31v5.43h-2.37v-5.17c0-1-.32-1.66-1.36-1.66s-1.58.56-1.58,2.07v4.76h-2.37Z"/><path class="cls-5" d="M309.81,163.84c.88,2.94,1.65,5.58,1.79,6.37h0c.18-.87.68-2.78,1.7-6.37h2.36l-2.87,8.79c-.82,2.46-1.5,3.19-3.56,3.19-.21,0-.69,0-1.1-.06v-1.91a5.68,5.68,0,0,0,.61,0,1.49,1.49,0,0,0,1.63-1.25l-3.11-8.8Z"/><circle class="cls-2" cx="535.01" cy="169.56" r="3.21"/></g></g></svg>