<svg xmlns="http://www.w3.org/2000/svg" xml:space="preserve" id="Profile" x="0" y="0" version="1.1" viewBox="0 0 128 128">
  <path fill="#14b7db" d="M97.5 27.8c.1 1.4-.7 2.4-1.7 3.3-4.2 3.5-8.4 7-12.7 10.5-1.2.9-1.4 1.8-1 3.2 1.4 5.2 2.6 10.4 3.9 15.6.5 2 0 3.7-1.6 4.9-1.4 1.1-3.3 1-5.2-.1-4.7-3-9.5-5.9-14.1-8.9-1-.7-1.7-.6-2.7 0-4.5 2.9-9.1 5.6-13.6 8.5-1.3.8-2.6 1.3-4.1.9-2.3-.5-3.6-2.8-3-5.2 1.4-5.7 2.8-11.4 4.3-17 .2-.9 0-1.4-.6-1.9-4-3.4-8-6.8-12-10.1-1.5-1.2-2.8-2.5-2.7-4.7.2-2.1 1.8-3.8 3.9-4 5.9-.4 11.8-.8 17.7-1.1.9-.1 1.2-.6 1.5-1.3l6-14.7c.2-.4.3-.9.6-1.3.8-1.7 2.2-2.6 4.1-2.6 1.9 0 3.2 1 3.9 2.7 2.1 5.3 4.2 10.5 6.3 15.8.4 1.1.9 1.6 2.2 1.6 5.2.3 10.3.7 15.5 1.1.8.1 1.6.2 2.3.4 1.6.5 2.8 2.2 2.8 4.4z" class="color1d75b9 svgShape"></path>
  <path d="M113.2 87.3s-28.7-9.8-29.6-9.8c-.1.4-.2.7-.3 1.1-1.4 5.2-2.7 10.4-4.3 15.6-1.9 6.1-4 12.1-6.1 18.1 0 .1 0 .1-.1.2-.2.7-.6 1.3-.9 2-.4-2.8-.8-6.4-1.3-9.9-.5-3.9-1-7.7-1.3-10.3 0-.3-.3-.5-.6-.5h-9.4c-.3 0-.5.2-.6.5-.3 2.6-.8 6.4-1.3 10.3-.5 3.6-.9 7.2-1.3 9.9-.3-.7-.7-1.3-.9-2 0-.1-.1-.1-.1-.2-2.1-6-4.2-12-6.1-18.1-1.6-5.1-2.9-10.3-4.3-15.6-.1-.4-.2-.7-.3-1.1-.8.1-29.6 9.8-29.6 9.8C2.3 91.5 3 99.8 3 99.8v16.5c1.2 10.1 8.9 9.9 8.9 9.9h104s7.8.2 8.9-9.9V99.8c.2 0 .9-8.3-11.6-12.5z" fill="#2d4a50" class="color2d3e50 svgShape"></path>
  <path d="m72 84.1-1.3-2.4c-.3-.5-.8-.9-1.4-.9H58.7c-.6 0-1.1.3-1.4.9L56 84.1c-.2.4-.2.9 0 1.4l2.4 5.1c0 .1.1.2.3.2h10.6c.1 0 .2-.1.3-.2l2.4-5.1c.2-.4.2-.9 0-1.4z" fill="#2d4a50" class="color2d3e50 svgShape"></path>
</svg>
