<svg xmlns="http://www.w3.org/2000/svg" width="1600" height="528" fill="none"><g clip-path="url(#a)"><path fill="transparent" d="M0 0h1600v528H0z"/><g opacity=".2"><mask id="b" width="1210" height="964" x="-525" y="-260" maskUnits="userSpaceOnUse" style="mask-type:alpha"><path fill="#D9D9D9" d="M365.775-244.806c-17.286 6.278-34.482 12.555-51.768 18.833-57.955 21.107-115.819 42.215-173.774 63.323-23.2 8.461-47.31 13.101-71.602 14.102-30.57 1.182-61.412-3.458-90.617-14.102-61.23-22.291-122.46-44.581-183.691-66.962-94.711-34.482-183.417-7.37-243.192 49.584-50.676 48.22-80.518 117.912-75.605 189.787 3.002 43.944 19.106 88.706 51.404 129.83 27.203 34.663 107.176 103.263 134.47 137.836 57.409 73.148 66.689 105.993 122.006 189.149 57.682 104.537 66.416 114.727 105.81 164.767 43.49 55.316 115.364 66.871 178.687 71.511 55.681 4.094 112.453-11.282 159.035-46.036 18.196-13.557 34.755-30.024 49.13-49.403 32.844-44.49 65.779-88.98 98.623-133.378 56.135-75.878 112.18-151.757 168.315-227.635 31.479-42.488 62.868-85.067 94.347-127.555 26.476-35.756 41.033-73.877 45.855-111.725 9.371-73.785-18.651-146.297-68.964-197.065C572.029-232.615 514.074-260 449.477-260c-26.93 0-55.043 4.822-83.702 15.194Z"/></mask><g mask="url(#b)"><g filter="url(#c)"><path fill="#1a2033" d="M262.999 117.337c0 251.842-190.603 232.001-480 232.001C-506.399 349.338-649 79.841-649-172c0-251.842 508 80 700 120 72-60 211.999-82.505 211.999 169.337Z"/></g><g filter="url(#d)"><path fill="#007BFF" d="M-172 446c9.6 19.2 76 82.667 108 112l96-16-44-88 28-52v-64l36-80 44-80h32l64-128 148-16v-88L172-78H56L16-54h-80l-52-24h-56l-52-36h-152l-44 36v76l44 68 56 88 96 184c13.333 28 42.4 88.8 52 108Z"/></g><path fill="#fff" d="M-450.291-138.217c177.033 31.968 528.82 58.79 519.696-89.659C58-413.438 170.497-139.334-450.291-138.217Z"/><g filter="url(#e)"><path fill="#1a2033" d="M187 354.552c0 222.666-95.302 205.123-240 205.123-144.699 0-216-238.275-216-460.942 0-222.666 254 70.732 350 106.098 36.001-53.049 106-72.946 106 149.721Z"/></g><g filter="url(#f)"><path fill="#606982" d="M-25.002 536c-64-108.001-146.973-128.192-167.513-209.926l-107.204-81.836C-341.516 132.927-319.11 164.957-229 160c106.444-5.857 292.936-31.265 372 55.999C250.511 334.662 14.997 603.498-25.002 536Z"/></g><g filter="url(#g)"><ellipse cx="343.405" cy="-51.473" fill="#007BFF" rx="217.15" ry="88" transform="rotate(-25 343.405 -51.473)"/></g><g filter="url(#h)"><ellipse cx="552" cy="-176" fill="#D7FAFF" rx="113" ry="128"/></g><g filter="url(#i)"><ellipse cx="660" cy="-64" fill="#D7FFF8" rx="113" ry="128"/></g></g></g><g opacity=".2"><mask id="j" width="1109" height="1092" x="1248" y="345" maskUnits="userSpaceOnUse" style="mask-type:alpha"><path fill="#D9D9D9" d="M1664.54 1354.57c12.08-13.87 24.08-27.7 36.15-41.57 40.46-46.56 80.83-93.07 121.29-139.63 16.19-18.65 35.02-34.4 55.79-47.05 26.16-15.85 55.38-26.75 86.09-31.6 64.36-10.19 128.72-20.38 193.12-30.49 99.55-15.76 163.99-82.474 188.66-161.266 20.95-66.743 13.26-142.164-25.88-202.645-23.93-36.979-59.72-68.322-107.9-88.631-40.6-17.129-143.8-38.356-184.44-55.362-85.67-36.145-109.71-60.372-198.41-106.284-101.13-63.466-113.71-68.143-172.42-92.81-64.86-27.297-133.32-2.557-190.95 24.084-50.69 23.414-92.89 64.385-116.78 117.366-9.34 20.678-15.84 43.109-19.02 67.027-7.16 54.835-14.39 109.714-21.59 164.469-12.32 93.579-24.55 187.115-36.86 280.692-6.93 52.42-13.74 104.88-20.67 157.3-5.83 44.11-.08 84.51 14.06 119.95 27.57 69.08 87.23 118.91 155.85 138.92 57.61 16.86 121.58 12.71 178.07-18.6 23.56-13.06 45.81-30.91 65.84-53.87Z"/></mask><g mask="url(#j)"><g filter="url(#k)"><path fill="#1a2033" d="M1578.87 988.004c-122.1-220.266 54.22-295.319 307.34-435.621 253.11-140.303 508.49 26.269 630.58 246.535 122.1 220.262-483.09 176.314-670.41 234.412-33.88 87.38-145.42 174.94-267.51-45.326Z"/></g><g filter="url(#l)"><path fill="#007BFF" d="M1799.98 489.655c-17.7-12.139-106.54-35.457-148.75-45.598l-76.21 60.535 81.15 55.635.72 59.055 31.02 55.976 7.3 87.423.3 91.301-27.98 15.514 6.08 142.974-121.69 85.75 42.66 76.97 158.57-60.46 101.46-56.24 23.35-40.38 69.97-38.786 57.12-4.219 48.97-27.15 62.94 6.277 83.96-46.542 48.98-27.149 21.03-52.818-36.85-66.471-71.45-38.143-91.64-49.817-173.17-114.388c-25.23-18.026-80.13-57.111-97.84-69.249Z"/></g><g filter="url(#m)"><path fill="#1a2033" d="M1530.33 743.688c-107.95-194.748-16.09-225.608 110.46-295.759 126.56-70.152 304.44 103.681 412.39 298.43 107.95 194.748-256.45 61.278-357.56 76.888-5.76 63.851-57.34 115.189-165.29-79.559Z"/></g><g filter="url(#n)"><path fill="#606982" d="M1627.78 482.208c108.34 63.431 190.7 40.866 248.29 102.393l133.44 19.602c90.52 77.091 55.39 59.94-21.02 107.962-90.26 56.727-241.05 169.363-352.51 131.371-151.56-51.663-75.9-400.971-8.2-361.328Z"/></g></g></g><g opacity=".06"><mask id="o" width="1000" height="434" x="300" y="47" maskUnits="userSpaceOnUse" style="mask-type:alpha"><path fill="#D9D9D9" stroke="#C0B9F9" d="M1299.5 264c0 29.795-13.91 58.219-39.15 84.117-25.24 25.901-61.79 49.248-107 68.867C1062.95 456.22 938.019 480.5 800 480.5c-138.019 0-262.949-24.28-353.354-63.516-45.204-19.619-81.754-42.966-106.995-68.867C314.411 322.219 300.5 293.795 300.5 264s13.911-58.219 39.151-84.117c25.241-25.901 61.791-49.248 106.995-68.867C537.051 71.78 661.981 47.5 800 47.5c138.019 0 262.95 24.28 353.35 63.516 45.21 19.619 81.76 42.966 107 68.867 25.24 25.898 39.15 54.322 39.15 84.117Z"/></mask><g stroke="#E9EDF0" stroke-linecap="round" stroke-linejoin="round" mask="url(#o)"><path d="M1226.67-143v767.999M1120-143v767.999M1013.33-143v767.999M906.667-143v767.999M799.999-143v767.999M693.335-143v767.999M586.667-143v767.999M480.003-143v767.999M373.335-143v767.999M160 48.997h1280M160 112.997h1280M160 177.001h1280M160 240.997h1280M160 304.997h1280M160 368.997h1280M160 432.997h1280"/></g></g></g><defs><filter id="c" width="1412" height="1115.28" x="-899" y="-515.574" color-interpolation-filters="sRGB" filterUnits="userSpaceOnUse"><feFlood flood-opacity="0" result="BackgroundImageFix"/><feBlend in="SourceGraphic" in2="BackgroundImageFix" result="shape"/><feGaussianBlur result="effect1_foregroundBlur_3827_64871" stdDeviation="125"/></filter><filter id="d" width="1160" height="1072" x="-620" y="-314" color-interpolation-filters="sRGB" filterUnits="userSpaceOnUse"><feFlood flood-opacity="0" result="BackgroundImageFix"/><feBlend in="SourceGraphic" in2="BackgroundImageFix" result="shape"/><feGaussianBlur result="effect1_foregroundBlur_3827_64871" stdDeviation="100"/></filter><filter id="e" width="956" height="1044" x="-519" y="-234" color-interpolation-filters="sRGB" filterUnits="userSpaceOnUse"><feFlood flood-opacity="0" result="BackgroundImageFix"/><feBlend in="SourceGraphic" in2="BackgroundImageFix" result="shape"/><feGaussianBlur result="effect1_foregroundBlur_3827_64871" stdDeviation="125"/></filter><filter id="f" width="890.867" height="794.666" x="-520.008" y="-47.953" color-interpolation-filters="sRGB" filterUnits="userSpaceOnUse"><feFlood flood-opacity="0" result="BackgroundImageFix"/><feBlend in="SourceGraphic" in2="BackgroundImageFix" result="shape"/><feGaussianBlur result="effect1_foregroundBlur_3827_64871" stdDeviation="100"/></filter><filter id="g" width="800.648" height="643.174" x="-56.918" y="-373.061" color-interpolation-filters="sRGB" filterUnits="userSpaceOnUse"><feFlood flood-opacity="0" result="BackgroundImageFix"/><feBlend in="SourceGraphic" in2="BackgroundImageFix" result="shape"/><feGaussianBlur result="effect1_foregroundBlur_3827_64871" stdDeviation="100"/></filter><filter id="h" width="526" height="556" x="289" y="-454" color-interpolation-filters="sRGB" filterUnits="userSpaceOnUse"><feFlood flood-opacity="0" result="BackgroundImageFix"/><feBlend in="SourceGraphic" in2="BackgroundImageFix" result="shape"/><feGaussianBlur result="effect1_foregroundBlur_3827_64871" stdDeviation="75"/></filter><filter id="i" width="526" height="556" x="397" y="-342" color-interpolation-filters="sRGB" filterUnits="userSpaceOnUse"><feFlood flood-opacity="0" result="BackgroundImageFix"/><feBlend in="SourceGraphic" in2="BackgroundImageFix" result="shape"/><feGaussianBlur result="effect1_foregroundBlur_3827_64871" stdDeviation="75"/></filter><filter id="k" width="1493.67" height="1125.85" x="1289.25" y="250.717" color-interpolation-filters="sRGB" filterUnits="userSpaceOnUse"><feFlood flood-opacity="0" result="BackgroundImageFix"/><feBlend in="SourceGraphic" in2="BackgroundImageFix" result="shape"/><feGaussianBlur result="effect1_foregroundBlur_3827_64871" stdDeviation="125"/></filter><filter id="l" width="1119.01" height="1131.13" x="1351.92" y="244.057" color-interpolation-filters="sRGB" filterUnits="userSpaceOnUse"><feFlood flood-opacity="0" result="BackgroundImageFix"/><feBlend in="SourceGraphic" in2="BackgroundImageFix" result="shape"/><feGaussianBlur result="effect1_foregroundBlur_3827_64871" stdDeviation="100"/></filter><filter id="m" width="1090.34" height="948.674" x="1232.62" y="182.062" color-interpolation-filters="sRGB" filterUnits="userSpaceOnUse"><feFlood flood-opacity="0" result="BackgroundImageFix"/><feBlend in="SourceGraphic" in2="BackgroundImageFix" result="shape"/><feGaussianBlur result="effect1_foregroundBlur_3827_64871" stdDeviation="125"/></filter><filter id="n" width="915.512" height="772.123" x="1347.81" y="279.08" color-interpolation-filters="sRGB" filterUnits="userSpaceOnUse"><feFlood flood-opacity="0" result="BackgroundImageFix"/><feBlend in="SourceGraphic" in2="BackgroundImageFix" result="shape"/><feGaussianBlur result="effect1_foregroundBlur_3827_64871" stdDeviation="100"/></filter><clipPath id="a"><path fill="#fff" d="M0 0h1600v528H0z"/></clipPath></defs></svg>