<svg xmlns="http://www.w3.org/2000/svg" width="1281" height="769" fill="none"><g fill-rule="evenodd" clip-rule="evenodd" opacity=".4"><path fill="url(#a)" d="M1173.83 0c.28 0 .5.224.5.5v767.999c0 .276-.22.5-.5.5s-.5-.224-.5-.5V.5c0-.276.22-.5.5-.5Z"/><path fill="url(#b)" d="M1067.17 0c.27 0 .5.224.5.5v767.999c0 .276-.23.5-.5.5-.28 0-.5-.224-.5-.5V.5c0-.276.22-.5.5-.5Z"/><path fill="url(#c)" d="M960.499 0a.5.5 0 0 1 .5.5v767.999a.5.5 0 0 1-1 0V.5a.5.5 0 0 1 .5-.5Z"/><path fill="url(#d)" d="M853.827 0a.5.5 0 0 1 .5.5v767.999a.5.5 0 0 1-1 0V.5a.5.5 0 0 1 .5-.5Z"/><path fill="url(#e)" d="M747.167 0a.5.5 0 0 1 .5.5v767.999a.5.5 0 0 1-1 0V.5a.5.5 0 0 1 .5-.5Z"/><path fill="url(#f)" d="M640.499 0a.5.5 0 0 1 .5.5v767.999a.5.5 0 0 1-1 0V.5a.5.5 0 0 1 .5-.5Z"/><path fill="url(#g)" d="M533.835 0a.5.5 0 0 1 .5.5v767.999a.5.5 0 0 1-1 0V.5a.5.5 0 0 1 .5-.5Z"/><path fill="url(#h)" d="M427.167 0a.5.5 0 0 1 .5.5v767.999a.5.5 0 0 1-1 0V.5a.5.5 0 0 1 .5-.5Z"/><path fill="url(#i)" d="M320.503 0a.5.5 0 0 1 .5.5v767.999a.5.5 0 0 1-1 0V.5a.5.5 0 0 1 .5-.5Z"/><path fill="url(#j)" d="M213.835 0a.5.5 0 0 1 .5.5v767.999a.5.5 0 0 1-1 0V.5a.5.5 0 0 1 .5-.5Z"/><path fill="url(#k)" d="M107.171 0a.5.5 0 0 1 .5.5v767.999a.5.5 0 0 1-1 0V.5a.5.5 0 0 1 .5-.5Z"/><path fill="url(#l)" d="M0 64.5a.5.5 0 0 1 .5-.5h1280c.28 0 .5.225.5.5 0 .277-.22.5-.5.5H.5a.5.5 0 0 1-.5-.5Z"/><path fill="url(#m)" d="M0 128.497a.5.5 0 0 1 .5-.5h1280c.28 0 .5.224.5.5s-.22.5-.5.5H.5a.5.5 0 0 1-.5-.5Z"/><path fill="url(#n)" d="M0 192.497a.5.5 0 0 1 .5-.5h1280c.28 0 .5.224.5.5s-.22.5-.5.5H.5a.5.5 0 0 1-.5-.5Z"/><path fill="url(#o)" d="M0 256.497a.5.5 0 0 1 .5-.5h1280c.28 0 .5.224.5.5s-.22.5-.5.5H.5a.5.5 0 0 1-.5-.5Z"/><path fill="url(#p)" d="M0 320.501a.5.5 0 0 1 .5-.5h1280c.28 0 .5.224.5.5s-.22.5-.5.5H.5a.5.5 0 0 1-.5-.5Z"/><path fill="url(#q)" d="M0 384.497a.5.5 0 0 1 .5-.5h1280c.28 0 .5.224.5.5s-.22.5-.5.5H.5a.5.5 0 0 1-.5-.5Z"/><path fill="url(#r)" d="M0 448.497a.5.5 0 0 1 .5-.5h1280c.28 0 .5.224.5.5s-.22.5-.5.5H.5a.5.5 0 0 1-.5-.5Z"/><path fill="url(#s)" d="M0 512.497a.5.5 0 0 1 .5-.5h1280c.28 0 .5.224.5.5s-.22.5-.5.5H.5a.5.5 0 0 1-.5-.5Z"/><path fill="url(#t)" d="M0 576.497a.5.5 0 0 1 .5-.5h1280c.28 0 .5.224.5.5s-.22.5-.5.5H.5a.5.5 0 0 1-.5-.5Z"/><path fill="url(#u)" d="M0 640.501a.5.5 0 0 1 .5-.5h1280c.28 0 .5.224.5.5s-.22.5-.5.5H.5a.5.5 0 0 1-.5-.5Z"/><path fill="url(#v)" d="M0 704.497a.5.5 0 0 1 .5-.5h1280c.28 0 .5.224.5.5s-.22.5-.5.5H.5a.5.5 0 0 1-.5-.5Z"/></g><defs><radialGradient id="a" cx="0" cy="0" r="1" gradientTransform="matrix(0 384 -639.668 0 640.5 384.504)" gradientUnits="userSpaceOnUse"><stop stop-color="#606982"/><stop offset="1" stop-color="#606982" stop-opacity="0"/></radialGradient><radialGradient id="b" cx="0" cy="0" r="1" gradientTransform="matrix(0 384 -639.668 0 640.5 384.504)" gradientUnits="userSpaceOnUse"><stop stop-color="#606982"/><stop offset="1" stop-color="#606982" stop-opacity="0"/></radialGradient><radialGradient id="c" cx="0" cy="0" r="1" gradientTransform="matrix(0 384 -639.668 0 640.5 384.504)" gradientUnits="userSpaceOnUse"><stop stop-color="#606982"/><stop offset="1" stop-color="#606982" stop-opacity="0"/></radialGradient><radialGradient id="d" cx="0" cy="0" r="1" gradientTransform="matrix(0 384 -639.668 0 640.5 384.504)" gradientUnits="userSpaceOnUse"><stop stop-color="#606982"/><stop offset="1" stop-color="#606982" stop-opacity="0"/></radialGradient><radialGradient id="e" cx="0" cy="0" r="1" gradientTransform="matrix(0 384 -639.668 0 640.5 384.504)" gradientUnits="userSpaceOnUse"><stop stop-color="#606982"/><stop offset="1" stop-color="#606982" stop-opacity="0"/></radialGradient><radialGradient id="f" cx="0" cy="0" r="1" gradientTransform="matrix(0 384 -639.668 0 640.5 384.504)" gradientUnits="userSpaceOnUse"><stop stop-color="#606982"/><stop offset="1" stop-color="#606982" stop-opacity="0"/></radialGradient><radialGradient id="g" cx="0" cy="0" r="1" gradientTransform="matrix(0 384 -639.668 0 640.5 384.504)" gradientUnits="userSpaceOnUse"><stop stop-color="#606982"/><stop offset="1" stop-color="#606982" stop-opacity="0"/></radialGradient><radialGradient id="h" cx="0" cy="0" r="1" gradientTransform="matrix(0 384 -639.668 0 640.5 384.504)" gradientUnits="userSpaceOnUse"><stop stop-color="#606982"/><stop offset="1" stop-color="#606982" stop-opacity="0"/></radialGradient><radialGradient id="i" cx="0" cy="0" r="1" gradientTransform="matrix(0 384 -639.668 0 640.5 384.504)" gradientUnits="userSpaceOnUse"><stop stop-color="#606982"/><stop offset="1" stop-color="#606982" stop-opacity="0"/></radialGradient><radialGradient id="j" cx="0" cy="0" r="1" gradientTransform="matrix(0 384 -639.668 0 640.5 384.504)" gradientUnits="userSpaceOnUse"><stop stop-color="#606982"/><stop offset="1" stop-color="#606982" stop-opacity="0"/></radialGradient><radialGradient id="k" cx="0" cy="0" r="1" gradientTransform="matrix(0 384 -639.668 0 640.5 384.504)" gradientUnits="userSpaceOnUse"><stop stop-color="#606982"/><stop offset="1" stop-color="#606982" stop-opacity="0"/></radialGradient><radialGradient id="l" cx="0" cy="0" r="1" gradientTransform="matrix(0 384 -639.668 0 640.5 384.504)" gradientUnits="userSpaceOnUse"><stop stop-color="#606982"/><stop offset="1" stop-color="#606982" stop-opacity="0"/></radialGradient><radialGradient id="m" cx="0" cy="0" r="1" gradientTransform="matrix(0 384 -639.668 0 640.5 384.504)" gradientUnits="userSpaceOnUse"><stop stop-color="#606982"/><stop offset="1" stop-color="#606982" stop-opacity="0"/></radialGradient><radialGradient id="n" cx="0" cy="0" r="1" gradientTransform="matrix(0 384 -639.668 0 640.5 384.504)" gradientUnits="userSpaceOnUse"><stop stop-color="#606982"/><stop offset="1" stop-color="#606982" stop-opacity="0"/></radialGradient><radialGradient id="o" cx="0" cy="0" r="1" gradientTransform="matrix(0 384 -639.668 0 640.5 384.504)" gradientUnits="userSpaceOnUse"><stop stop-color="#606982"/><stop offset="1" stop-color="#606982" stop-opacity="0"/></radialGradient><radialGradient id="p" cx="0" cy="0" r="1" gradientTransform="matrix(0 384 -639.668 0 640.5 384.504)" gradientUnits="userSpaceOnUse"><stop stop-color="#606982"/><stop offset="1" stop-color="#606982" stop-opacity="0"/></radialGradient><radialGradient id="q" cx="0" cy="0" r="1" gradientTransform="matrix(0 384 -639.668 0 640.5 384.504)" gradientUnits="userSpaceOnUse"><stop stop-color="#606982"/><stop offset="1" stop-color="#606982" stop-opacity="0"/></radialGradient><radialGradient id="r" cx="0" cy="0" r="1" gradientTransform="matrix(0 384 -639.668 0 640.5 384.504)" gradientUnits="userSpaceOnUse"><stop stop-color="#606982"/><stop offset="1" stop-color="#606982" stop-opacity="0"/></radialGradient><radialGradient id="s" cx="0" cy="0" r="1" gradientTransform="matrix(0 384 -639.668 0 640.5 384.504)" gradientUnits="userSpaceOnUse"><stop stop-color="#606982"/><stop offset="1" stop-color="#606982" stop-opacity="0"/></radialGradient><radialGradient id="t" cx="0" cy="0" r="1" gradientTransform="matrix(0 384 -639.668 0 640.5 384.504)" gradientUnits="userSpaceOnUse"><stop stop-color="#606982"/><stop offset="1" stop-color="#606982" stop-opacity="0"/></radialGradient><radialGradient id="u" cx="0" cy="0" r="1" gradientTransform="matrix(0 384 -639.668 0 640.5 384.504)" gradientUnits="userSpaceOnUse"><stop stop-color="#606982"/><stop offset="1" stop-color="#606982" stop-opacity="0"/></radialGradient><radialGradient id="v" cx="0" cy="0" r="1" gradientTransform="matrix(0 384 -639.668 0 640.5 384.504)" gradientUnits="userSpaceOnUse"><stop stop-color="#606982"/><stop offset="1" stop-color="#606982" stop-opacity="0"/></radialGradient></defs></svg>